<svg version="1.1" viewBox="0.0 0.0 718.0 552.0" fill="none" stroke="none" stroke-linecap="square" stroke-miterlimit="10" width="718" height="552" xmlns:xlink="http://www.w3.org/1999/xlink" xmlns="http://www.w3.org/2000/svg"><path fill="#ffffff" d="M0 0L718.0 0L718.0 552.0L0 552.0L0 0Z" fill-rule="nonzero"/><path stroke="#000000" stroke-width="1.0" stroke-linecap="butt" stroke-opacity="0.0" d="M155.5 70.5L155.5 442.5" fill-rule="nonzero"/><path stroke="#000000" stroke-width="1.0" stroke-linecap="butt" stroke-opacity="0.0" d="M203.5 70.5L203.5 442.5" fill-rule="nonzero"/><path stroke="#000000" stroke-width="1.0" stroke-linecap="butt" stroke-opacity="0.0" d="M301.5 70.5L301.5 442.5" fill-rule="nonzero"/><path stroke="#000000" stroke-width="1.0" stroke-linecap="butt" stroke-opacity="0.0" d="M349.5 70.5L349.5 442.5" fill-rule="nonzero"/><path stroke="#000000" stroke-width="1.0" stroke-linecap="butt" stroke-opacity="0.0" d="M447.5 70.5L447.5 442.5" fill-rule="nonzero"/><path stroke="#000000" stroke-width="1.0" stroke-linecap="butt" stroke-opacity="0.0" d="M495.5 70.5L495.5 442.5" fill-rule="nonzero"/><path stroke="#000000" stroke-width="1.0" stroke-linecap="butt" stroke-opacity="0.0" d="M593.5 70.5L593.5 442.5" fill-rule="nonzero"/><path stroke="#000000" stroke-width="1.0" stroke-linecap="butt" stroke-opacity="0.0" d="M641.5 70.5L641.5 442.5" fill-rule="nonzero"/><clipPath id="id_0"><path d="M106.6 70.0L690.4 70.0L690.4 442.0L106.6 442.0L106.6 70.0Z" clip-rule="nonzero"/></clipPath><path stroke="#000000" stroke-width="2.0" stroke-linecap="butt" stroke-opacity="0.0" clip-path="url(#id_0)" d="M107.0 116.0L107.0 95.0L195.0 95.0C196.10457 95.0 197.0 95.89543 197.0 97.0L197.0 114.0C197.0 115.10457 196.10457 116.0 195.0 116.0Z" fill-rule="nonzero"/><path fill="#cfe2f3" clip-path="url(#id_0)" d="M107.0 116.0L107.0 95.0L195.0 95.0C196.10457 95.0 197.0 95.89543 197.0 97.0L197.0 114.0C197.0 115.10457 196.10457 116.0 195.0 116.0Z" fill-rule="nonzero"/><path stroke="#000000" stroke-width="2.0" stroke-linecap="butt" stroke-opacity="0.0" clip-path="url(#id_0)" d="M107.0 185.0L107.0 164.0L107.0 164.0L107.0 185.0Z" fill-rule="nonzero"/><path fill="#cfe2f3" clip-path="url(#id_0)" d="M107.0 185.0L107.0 164.0L107.0 164.0L107.0 185.0Z" fill-rule="nonzero"/><path stroke="#000000" stroke-width="2.0" stroke-linecap="butt" stroke-opacity="0.0" clip-path="url(#id_0)" d="M107.0 255.0L107.0 234.0L107.5 234.0C107.776146 234.0 108.0 234.22386 108.0 234.5L108.0 254.5C108.0 254.77614 107.776146 255.0 107.5 255.0Z" fill-rule="nonzero"/><path fill="#cfe2f3" clip-path="url(#id_0)" d="M107.0 255.0L107.0 234.0L107.5 234.0C107.776146 234.0 108.0 234.22386 108.0 234.5L108.0 254.5C108.0 254.77614 107.776146 255.0 107.5 255.0Z" fill-rule="nonzero"/><path stroke="#000000" stroke-width="2.0" stroke-linecap="butt" stroke-opacity="0.0" clip-path="url(#id_0)" d="M107.0 325.0L107.0 304.0L281.0 304.0C282.10458 304.0 283.0 304.89542 283.0 306.0L283.0 323.0C283.0 324.10458 282.10458 325.0 281.0 325.0Z" fill-rule="nonzero"/><path fill="#cfe2f3" clip-path="url(#id_0)" d="M107.0 325.0L107.0 304.0L281.0 304.0C282.10458 304.0 283.0 304.89542 283.0 306.0L283.0 323.0C283.0 324.10458 282.10458 325.0 281.0 325.0Z" fill-rule="nonzero"/><path stroke="#000000" stroke-width="2.0" stroke-linecap="butt" stroke-opacity="0.0" clip-path="url(#id_0)" d="M107.0 394.0L107.0 373.0L107.5 373.0C107.776146 373.0 108.0 373.22385 108.0 373.5L108.0 393.5C108.0 393.77615 107.776146 394.0 107.5 394.0Z" fill-rule="nonzero"/><path fill="#cfe2f3" clip-path="url(#id_0)" d="M107.0 394.0L107.0 373.0L107.5 373.0C107.776146 373.0 108.0 373.22385 108.0 373.5L108.0 393.5C108.0 393.77615 107.776146 394.0 107.5 394.0Z" fill-rule="nonzero"/><path stroke="#000000" stroke-width="2.0" stroke-linecap="butt" stroke-opacity="0.0" clip-path="url(#id_0)" d="M107.0 139.0L107.0 118.0L107.0 118.0L107.0 139.0Z" fill-rule="nonzero"/><path fill="#3c78d8" clip-path="url(#id_0)" d="M107.0 139.0L107.0 118.0L107.0 118.0L107.0 139.0Z" fill-rule="nonzero"/><path stroke="#000000" stroke-width="2.0" stroke-linecap="butt" stroke-opacity="0.0" clip-path="url(#id_0)" d="M107.0 208.0L107.0 187.0L107.0 187.0L107.0 208.0Z" fill-rule="nonzero"/><path fill="#3c78d8" clip-path="url(#id_0)" d="M107.0 208.0L107.0 187.0L107.0 187.0L107.0 208.0Z" fill-rule="nonzero"/><path stroke="#000000" stroke-width="2.0" stroke-linecap="butt" stroke-opacity="0.0" clip-path="url(#id_0)" d="M107.0 278.0L107.0 257.0L116.0 257.0C117.10457 257.0 118.0 257.89542 118.0 259.0L118.0 276.0C118.0 277.10458 117.10457 278.0 116.0 278.0Z" fill-rule="nonzero"/><path fill="#3c78d8" clip-path="url(#id_0)" d="M107.0 278.0L107.0 257.0L116.0 257.0C117.10457 257.0 118.0 257.89542 118.0 259.0L118.0 276.0C118.0 277.10458 117.10457 278.0 116.0 278.0Z" fill-rule="nonzero"/><path stroke="#000000" stroke-width="2.0" stroke-linecap="butt" stroke-opacity="0.0" clip-path="url(#id_0)" d="M107.0 348.0L107.0 327.0L554.0 327.0C555.10455 327.0 556.0 327.89542 556.0 329.0L556.0 346.0C556.0 347.10458 555.10455 348.0 554.0 348.0Z" fill-rule="nonzero"/><path fill="#3c78d8" clip-path="url(#id_0)" d="M107.0 348.0L107.0 327.0L554.0 327.0C555.10455 327.0 556.0 327.89542 556.0 329.0L556.0 346.0C556.0 347.10458 555.10455 348.0 554.0 348.0Z" fill-rule="nonzero"/><path stroke="#000000" stroke-width="2.0" stroke-linecap="butt" stroke-opacity="0.0" clip-path="url(#id_0)" d="M107.0 417.0L107.0 396.0L107.0 396.0L107.0 417.0Z" fill-rule="nonzero"/><path fill="#3c78d8" clip-path="url(#id_0)" d="M107.0 417.0L107.0 396.0L107.0 396.0L107.0 417.0Z" fill-rule="nonzero"/><path fill="#000000" d="M304.97186 493.0L308.26874 484.40625L309.4875 484.40625L313.0031 493.0L311.72186 493.0L310.70624 490.39062L307.1281 490.39062L306.175 493.0L304.97186 493.0ZM307.45624 489.46875L310.3625 489.46875L309.47186 487.09375Q309.05 486.01562 308.8625 485.3125Q308.6906 486.14062 308.39374 486.95312L307.45624 489.46875ZM315.5031 493.0L313.14374 486.78125L314.2531 486.78125L315.59686 490.5Q315.8 491.10938 315.9875 491.75Q316.1281 491.26562 316.3781 490.57812L317.76874 486.78125L318.84686 486.78125L316.4875 493.0L315.5031 493.0ZM324.03436 491.0L325.1281 491.125Q324.8781 492.07812 324.175 492.60938Q323.47186 493.14062 322.39374 493.14062Q321.03436 493.14062 320.22186 492.29688Q319.425 491.45312 319.425 489.9375Q319.425 488.375 320.2375 487.51562Q321.05 486.64062 322.33124 486.64062Q323.58124 486.64062 324.3625 487.48438Q325.15936 488.32812 325.15936 489.875Q325.15936 489.96875 325.15936 490.15625L320.51874 490.15625Q320.58124 491.1875 321.09686 491.73438Q321.6125 492.26562 322.39374 492.26562Q322.97186 492.26562 323.3781 491.96875Q323.8 491.65625 324.03436 491.0ZM320.58124 489.29688L324.05 489.29688Q323.9875 488.5 323.65936 488.10938Q323.14374 487.5 322.34686 487.5Q321.6125 487.5 321.1125 487.98438Q320.6281 488.46875 320.58124 489.29688ZM326.76874 493.0L326.76874 486.78125L327.72186 486.78125L327.72186 487.71875Q328.08124 487.0625 328.3781 486.85938Q328.6906 486.64062 329.0656 486.64062Q329.59686 486.64062 330.14374 486.96875L329.78436 487.95312Q329.39374 487.71875 329.01874 487.71875Q328.65936 487.71875 328.3781 487.9375Q328.1125 488.14062 328.0031 488.51562Q327.8156 489.07812 327.8156 489.73438L327.8156 493.0L326.76874 493.0ZM334.84686 492.23438Q334.2531 492.73438 333.70624 492.9375Q333.175 493.14062 332.55 493.14062Q331.51874 493.14062 330.97186 492.64062Q330.425 492.14062 330.425 491.35938Q330.425 490.90625 330.6281 490.53125Q330.83124 490.14062 331.175 489.92188Q331.51874 489.6875 331.9406 489.57812Q332.2375 489.48438 332.8781 489.40625Q334.14374 489.26562 334.7531 489.04688Q334.7531 488.82812 334.7531 488.78125Q334.7531 488.125 334.45624 487.85938Q334.05 487.51562 333.2531 487.51562Q332.51874 487.51562 332.15936 487.78125Q331.8 488.03125 331.6281 488.6875L330.59686 488.54688Q330.7375 487.89062 331.0656 487.48438Q331.39374 487.07812 332.0031 486.85938Q332.6125 486.64062 333.40936 486.64062Q334.20624 486.64062 334.70624 486.82812Q335.20624 487.01562 335.4406 487.29688Q335.675 487.57812 335.76874 488.01562Q335.8156 488.28125 335.8156 488.98438L335.8156 490.39062Q335.8156 491.85938 335.8781 492.25Q335.95624 492.64062 336.15936 493.0L335.05 493.0Q334.89374 492.67188 334.84686 492.23438ZM334.7531 489.875Q334.175 490.10938 333.03436 490.28125Q332.3781 490.375 332.1125 490.5Q331.84686 490.60938 331.6906 490.82812Q331.55 491.04688 331.55 491.32812Q331.55 491.75 331.8625 492.03125Q332.1906 492.3125 332.8 492.3125Q333.40936 492.3125 333.8781 492.04688Q334.3625 491.78125 334.58124 491.3125Q334.7531 490.95312 334.7531 490.26562L334.7531 489.875ZM337.58124 493.51562L338.6125 493.67188Q338.675 494.14062 338.97186 494.35938Q339.3625 494.65625 340.03436 494.65625Q340.76874 494.65625 341.15936 494.35938Q341.5656 494.0625 341.70624 493.54688Q341.8 493.21875 341.78436 492.1875Q341.09686 493.0 340.0656 493.0Q338.78436 493.0 338.08124 492.07812Q337.3781 491.14062 337.3781 489.85938Q337.3781 488.96875 337.6906 488.21875Q338.01874 487.45312 338.6281 487.04688Q339.2375 486.64062 340.0656 486.64062Q341.175 486.64062 341.89374 487.53125L341.89374 486.78125L342.8625 486.78125L342.8625 492.15625Q342.8625 493.60938 342.5656 494.21875Q342.26874 494.82812 341.6281 495.17188Q340.9875 495.53125 340.05 495.53125Q338.9406 495.53125 338.2531 495.03125Q337.5656 494.53125 337.58124 493.51562ZM338.45624 489.78125Q338.45624 491.0 338.9406 491.5625Q339.425 492.125 340.15936 492.125Q340.89374 492.125 341.3781 491.5625Q341.8781 491.0 341.8781 489.8125Q341.8781 488.67188 341.3625 488.09375Q340.8625 487.51562 340.14374 487.51562Q339.4406 487.51562 338.9406 488.09375Q338.45624 488.65625 338.45624 489.78125ZM349.03436 491.0L350.1281 491.125Q349.8781 492.07812 349.175 492.60938Q348.47186 493.14062 347.39374 493.14062Q346.03436 493.14062 345.22186 492.29688Q344.425 491.45312 344.425 489.9375Q344.425 488.375 345.2375 487.51562Q346.05 486.64062 347.33124 486.64062Q348.58124 486.64062 349.3625 487.48438Q350.15936 488.32812 350.15936 489.875Q350.15936 489.96875 350.15936 490.15625L345.51874 490.15625Q345.58124 491.1875 346.09686 491.73438Q346.6125 492.26562 347.39374 492.26562Q347.97186 492.26562 348.3781 491.96875Q348.8 491.65625 349.03436 491.0ZM345.58124 489.29688L349.05 489.29688Q348.9875 488.5 348.65936 488.10938Q348.14374 487.5 347.34686 487.5Q346.6125 487.5 346.1125 487.98438Q345.6281 488.46875 345.58124 489.29688ZM354.90936 493.0L354.90936 484.40625L358.15936 484.40625Q359.0031 484.40625 359.45624 484.48438Q360.09686 484.59375 360.51874 484.89062Q360.95624 485.1875 361.20624 485.71875Q361.47186 486.25 361.47186 486.89062Q361.47186 487.98438 360.76874 488.75Q360.08124 489.5 358.2531 489.5L356.05 489.5L356.05 493.0L354.90936 493.0ZM356.05 488.5L358.26874 488.5Q359.3781 488.5 359.83124 488.09375Q360.3 487.67188 360.3 486.92188Q360.3 486.39062 360.01874 486.01562Q359.7531 485.625 359.3156 485.5Q359.01874 485.42188 358.2531 485.42188L356.05 485.42188L356.05 488.5ZM366.84686 492.23438Q366.2531 492.73438 365.70624 492.9375Q365.175 493.14062 364.55 493.14062Q363.51874 493.14062 362.97186 492.64062Q362.425 492.14062 362.425 491.35938Q362.425 490.90625 362.6281 490.53125Q362.83124 490.14062 363.175 489.92188Q363.51874 489.6875 363.9406 489.57812Q364.2375 489.48438 364.8781 489.40625Q366.14374 489.26562 366.7531 489.04688Q366.7531 488.82812 366.7531 488.78125Q366.7531 488.125 366.45624 487.85938Q366.05 487.51562 365.2531 487.51562Q364.51874 487.51562 364.15936 487.78125Q363.8 488.03125 363.6281 488.6875L362.59686 488.54688Q362.7375 487.89062 363.0656 487.48438Q363.39374 487.07812 364.0031 486.85938Q364.6125 486.64062 365.40936 486.64062Q366.20624 486.64062 366.70624 486.82812Q367.20624 487.01562 367.4406 487.29688Q367.675 487.57812 367.76874 488.01562Q367.8156 488.28125 367.8156 488.98438L367.8156 490.39062Q367.8156 491.85938 367.8781 492.25Q367.95624 492.64062 368.15936 493.0L367.05 493.0Q366.89374 492.67188 366.84686 492.23438ZM366.7531 489.875Q366.175 490.10938 365.03436 490.28125Q364.3781 490.375 364.1125 490.5Q363.84686 490.60938 363.6906 490.82812Q363.55 491.04688 363.55 491.32812Q363.55 491.75 363.8625 492.03125Q364.1906 492.3125 364.8 492.3125Q365.40936 492.3125 365.8781 492.04688Q366.3625 491.78125 366.58124 491.3125Q366.7531 490.95312 366.7531 490.26562L366.7531 489.875ZM373.84686 490.71875L374.8781 490.85938Q374.70624 491.92188 374.0031 492.53125Q373.3 493.14062 372.28436 493.14062Q371.0031 493.14062 370.22186 492.3125Q369.45624 491.46875 369.45624 489.90625Q369.45624 488.90625 369.78436 488.15625Q370.1281 487.39062 370.8 487.01562Q371.4875 486.64062 372.3 486.64062Q373.3 486.64062 373.9406 487.15625Q374.59686 487.65625 374.78436 488.60938L373.7531 488.76562Q373.6125 488.14062 373.2375 487.82812Q372.8625 487.5 372.33124 487.5Q371.53436 487.5 371.03436 488.07812Q370.53436 488.64062 370.53436 489.875Q370.53436 491.14062 371.01874 491.70312Q371.5031 492.26562 372.26874 492.26562Q372.89374 492.26562 373.3 491.89062Q373.72186 491.51562 373.84686 490.71875ZM375.78436 493.0L375.78436 484.40625L376.84686 484.40625L376.84686 489.3125L379.33124 486.78125L380.70624 486.78125L378.3156 489.07812L380.9406 493.0L379.64374 493.0L377.58124 489.8125L376.84686 490.53125L376.84686 493.0L375.78436 493.0ZM386.03436 491.0L387.1281 491.125Q386.8781 492.07812 386.175 492.60938Q385.47186 493.14062 384.39374 493.14062Q383.03436 493.14062 382.22186 492.29688Q381.425 491.45312 381.425 489.9375Q381.425 488.375 382.2375 487.51562Q383.05 486.64062 384.33124 486.64062Q385.58124 486.64062 386.3625 487.48438Q387.15936 488.32812 387.15936 489.875Q387.15936 489.96875 387.15936 490.15625L382.51874 490.15625Q382.58124 491.1875 383.09686 491.73438Q383.6125 492.26562 384.39374 492.26562Q384.97186 492.26562 385.3781 491.96875Q385.8 491.65625 386.03436 491.0ZM382.58124 489.29688L386.05 489.29688Q385.9875 488.5 385.65936 488.10938Q385.14374 487.5 384.34686 487.5Q383.6125 487.5 383.1125 487.98438Q382.6281 488.46875 382.58124 489.29688ZM391.08124 492.0625L391.2375 492.98438Q390.78436 493.07812 390.4406 493.07812Q389.8625 493.07812 389.55 492.90625Q389.2375 492.71875 389.09686 492.42188Q388.97186 492.125 388.97186 491.17188L388.97186 487.59375L388.20624 487.59375L388.20624 486.78125L388.97186 486.78125L388.97186 485.23438L390.01874 484.60938L390.01874 486.78125L391.08124 486.78125L391.08124 487.59375L390.01874 487.59375L390.01874 491.23438Q390.01874 491.6875 390.0656 491.8125Q390.1281 491.9375 390.2531 492.01562Q390.3781 492.09375 390.6125 492.09375Q390.8 492.09375 391.08124 492.0625ZM394.8625 493.0L394.8625 484.40625L396.0031 484.40625L396.0031 491.98438L400.2375 491.98438L400.2375 493.0L394.8625 493.0ZM401.39374 489.89062Q401.39374 488.15625 402.34686 487.32812Q403.14374 486.64062 404.3 486.64062Q405.58124 486.64062 406.39374 487.48438Q407.22186 488.3125 407.22186 489.79688Q407.22186 491.0 406.8625 491.6875Q406.5031 492.375 405.8 492.76562Q405.1125 493.14062 404.3 493.14062Q403.0031 493.14062 402.1906 492.3125Q401.39374 491.46875 401.39374 489.89062ZM402.47186 489.89062Q402.47186 491.07812 402.9875 491.67188Q403.51874 492.26562 404.3 492.26562Q405.09686 492.26562 405.6125 491.67188Q406.1281 491.07812 406.1281 489.85938Q406.1281 488.70312 405.59686 488.10938Q405.08124 487.51562 404.3 487.51562Q403.51874 487.51562 402.9875 488.10938Q402.47186 488.6875 402.47186 489.89062ZM408.3625 491.14062L409.39374 490.98438Q409.4875 491.60938 409.8781 491.9375Q410.28436 492.26562 411.01874 492.26562Q411.7375 492.26562 412.08124 491.98438Q412.4406 491.6875 412.4406 491.28125Q412.4406 490.92188 412.1281 490.71875Q411.90936 490.57812 411.05 490.35938Q409.89374 490.0625 409.4406 489.85938Q409.0031 489.64062 408.76874 489.26562Q408.53436 488.89062 408.53436 488.42188Q408.53436 488.01562 408.72186 487.65625Q408.90936 487.29688 409.2375 487.0625Q409.4875 486.89062 409.90936 486.76562Q410.33124 486.64062 410.83124 486.64062Q411.55 486.64062 412.09686 486.85938Q412.65936 487.0625 412.925 487.42188Q413.1906 487.78125 413.28436 488.375L412.2531 488.51562Q412.1906 488.04688 411.84686 487.78125Q411.51874 487.5 410.89374 487.5Q410.175 487.5 409.8625 487.75Q409.55 487.98438 409.55 488.3125Q409.55 488.51562 409.675 488.67188Q409.8156 488.84375 410.08124 488.95312Q410.2375 489.01562 411.01874 489.21875Q412.14374 489.53125 412.58124 489.71875Q413.01874 489.90625 413.26874 490.26562Q413.51874 490.625 413.51874 491.17188Q413.51874 491.70312 413.20624 492.17188Q412.90936 492.625 412.33124 492.89062Q411.7531 493.14062 411.01874 493.14062Q409.8 493.14062 409.15936 492.64062Q408.53436 492.125 408.3625 491.14062ZM414.3625 491.14062L415.39374 490.98438Q415.4875 491.60938 415.8781 491.9375Q416.28436 492.26562 417.01874 492.26562Q417.7375 492.26562 418.08124 491.98438Q418.4406 491.6875 418.4406 491.28125Q418.4406 490.92188 418.1281 490.71875Q417.90936 490.57812 417.05 490.35938Q415.89374 490.0625 415.4406 489.85938Q415.0031 489.64062 414.76874 489.26562Q414.53436 488.89062 414.53436 488.42188Q414.53436 488.01562 414.72186 487.65625Q414.90936 487.29688 415.2375 487.0625Q415.4875 486.89062 415.90936 486.76562Q416.33124 486.64062 416.83124 486.64062Q417.55 486.64062 418.09686 486.85938Q418.65936 487.0625 418.925 487.42188Q419.1906 487.78125 419.28436 488.375L418.2531 488.51562Q418.1906 488.04688 417.84686 487.78125Q417.51874 487.5 416.89374 487.5Q416.175 487.5 415.8625 487.75Q415.55 487.98438 415.55 488.3125Q415.55 488.51562 415.675 488.67188Q415.8156 488.84375 416.08124 488.95312Q416.2375 489.01562 417.01874 489.21875Q418.14374 489.53125 418.58124 489.71875Q419.01874 489.90625 419.26874 490.26562Q419.51874 490.625 419.51874 491.17188Q419.51874 491.70312 419.20624 492.17188Q418.90936 492.625 418.33124 492.89062Q417.7531 493.14062 417.01874 493.14062Q415.8 493.14062 415.15936 492.64062Q414.53436 492.125 414.3625 491.14062ZM425.8 495.53125Q424.925 494.42188 424.3156 492.95312Q423.72186 491.46875 423.72186 489.89062Q423.72186 488.5 424.15936 487.21875Q424.6906 485.73438 425.8 484.26562L426.55 484.26562Q425.84686 485.48438 425.6125 486.0Q425.2531 486.8125 425.05 487.6875Q424.8 488.78125 424.8 489.89062Q424.8 492.71875 426.55 495.53125L425.8 495.53125ZM427.6906 486.46875Q427.6906 485.54688 428.14374 484.90625Q428.6125 484.26562 429.4875 484.26562Q430.3 484.26562 430.83124 484.84375Q431.3625 485.42188 431.3625 486.53125Q431.3625 487.625 430.8156 488.21875Q430.28436 488.79688 429.5031 488.79688Q428.72186 488.79688 428.20624 488.21875Q427.6906 487.64062 427.6906 486.46875ZM429.51874 484.98438Q429.1281 484.98438 428.8625 485.32812Q428.6125 485.67188 428.6125 486.57812Q428.6125 487.40625 428.8625 487.75Q429.1281 488.07812 429.51874 488.07812Q429.925 488.07812 430.175 487.73438Q430.4406 487.39062 430.4406 486.5Q430.4406 485.65625 430.175 485.32812Q429.90936 484.98438 429.51874 484.98438ZM429.51874 493.3125L434.22186 484.26562L435.08124 484.26562L430.39374 493.3125L429.51874 493.3125ZM433.2375 490.98438Q433.2375 490.0625 433.6906 489.42188Q434.15936 488.78125 435.05 488.78125Q435.8625 488.78125 436.39374 489.35938Q436.925 489.92188 436.925 491.04688Q436.925 492.14062 436.3781 492.73438Q435.84686 493.3125 435.05 493.3125Q434.28436 493.3125 433.7531 492.73438Q433.2375 492.15625 433.2375 490.98438ZM435.08124 489.5Q434.675 489.5 434.40936 489.84375Q434.15936 490.1875 434.15936 491.09375Q434.15936 491.90625 434.425 492.25Q434.6906 492.59375 435.08124 492.59375Q435.47186 492.59375 435.7375 492.25Q436.0031 491.90625 436.0031 491.0Q436.0031 490.17188 435.7375 489.84375Q435.47186 489.5 435.08124 489.5ZM439.47186 495.53125L438.72186 495.53125Q440.47186 492.71875 440.47186 489.89062Q440.47186 488.79688 440.22186 487.70312Q440.01874 486.82812 439.65936 486.01562Q439.425 485.5 438.72186 484.26562L439.47186 484.26562Q440.5656 485.73438 441.09686 487.21875Q441.55 488.5 441.55 489.89062Q441.55 491.46875 440.9406 492.95312Q440.33124 494.42188 439.47186 495.53125Z" fill-rule="nonzero"/><path fill="#000000" d="M38.6 299.39062L31.021875 299.39062L31.021875 302.21875L30.00625 302.21875L30.00625 295.40625L31.021875 295.40625L31.021875 298.25L38.6 298.25L38.6 299.39062ZM36.6 290.45312L36.725 289.35938Q37.678123 289.60938 38.209373 290.3125Q38.740623 291.01562 38.740623 292.09375Q38.740623 293.45312 37.896873 294.26562Q37.053123 295.0625 35.5375 295.0625Q33.975 295.0625 33.115623 294.25Q32.240623 293.4375 32.240623 292.15625Q32.240623 290.90625 33.084373 290.125Q33.928123 289.32812 35.475 289.32812Q35.56875 289.32812 35.75625 289.32812L35.75625 293.96875Q36.7875 293.90625 37.334373 293.39062Q37.865623 292.875 37.865623 292.09375Q37.865623 291.51562 37.56875 291.10938Q37.25625 290.6875 36.6 290.45312ZM34.896873 293.90625L34.896873 290.4375Q34.1 290.5 33.709373 290.82812Q33.1 291.34375 33.1 292.14062Q33.1 292.875 33.584373 293.375Q34.06875 293.85938 34.896873 293.90625ZM36.740623 288.125L36.584373 287.09375Q37.209373 287.0 37.5375 286.60938Q37.865623 286.20312 37.865623 285.46875Q37.865623 284.75 37.584373 284.40625Q37.2875 284.04688 36.88125 284.04688Q36.521873 284.04688 36.31875 284.35938Q36.178123 284.57812 35.959373 285.4375Q35.6625 286.59375 35.459373 287.04688Q35.240623 287.48438 34.865623 287.71875Q34.490623 287.95312 34.021873 287.95312Q33.615623 287.95312 33.25625 287.76562Q32.896873 287.57812 32.6625 287.25Q32.490623 287.0 32.365623 286.57812Q32.240623 286.15625 32.240623 285.65625Q32.240623 284.9375 32.459373 284.39062Q32.6625 283.82812 33.021873 283.5625Q33.38125 283.29688 33.975 283.20312L34.115623 284.23438Q33.646873 284.29688 33.38125 284.64062Q33.1 284.96875 33.1 285.59375Q33.1 286.3125 33.35 286.625Q33.584373 286.9375 33.9125 286.9375Q34.115623 286.9375 34.271873 286.8125Q34.44375 286.67188 34.553123 286.40625Q34.615623 286.25 34.81875 285.46875Q35.13125 284.34375 35.31875 283.90625Q35.50625 283.46875 35.865623 283.21875Q36.225 282.96875 36.771873 282.96875Q37.303123 282.96875 37.771873 283.28125Q38.225 283.57812 38.490623 284.15625Q38.740623 284.73438 38.740623 285.46875Q38.740623 286.6875 38.240623 287.32812Q37.725 287.95312 36.740623 288.125ZM37.6625 279.40625L38.584373 279.25Q38.678123 279.70312 38.678123 280.04688Q38.678123 280.625 38.50625 280.9375Q38.31875 281.25 38.021873 281.39062Q37.725 281.51562 36.771873 281.51562L33.19375 281.51562L33.19375 282.28125L32.38125 282.28125L32.38125 281.51562L30.834375 281.51562L30.209375 280.46875L32.38125 280.46875L32.38125 279.40625L33.19375 279.40625L33.19375 280.46875L36.834373 280.46875Q37.2875 280.46875 37.4125 280.42188Q37.5375 280.35938 37.615623 280.23438Q37.69375 280.10938 37.69375 279.875Q37.69375 279.6875 37.6625 279.40625ZM38.6 275.625L30.00625 275.625L30.00625 274.48438L37.584373 274.48438L37.584373 270.25L38.6 270.25L38.6 275.625ZM35.490623 269.09375Q33.75625 269.09375 32.928123 268.14062Q32.240623 267.34375 32.240623 266.1875Q32.240623 264.90625 33.084373 264.09375Q33.9125 263.26562 35.396873 263.26562Q36.6 263.26562 37.2875 263.625Q37.975 263.98438 38.365623 264.6875Q38.740623 265.375 38.740623 266.1875Q38.740623 267.48438 37.9125 268.29688Q37.06875 269.09375 35.490623 269.09375ZM35.490623 268.01562Q36.678123 268.01562 37.271873 267.5Q37.865623 266.96875 37.865623 266.1875Q37.865623 265.39062 37.271873 264.875Q36.678123 264.35938 35.459373 264.35938Q34.303123 264.35938 33.709373 264.89062Q33.115623 265.40625 33.115623 266.1875Q33.115623 266.96875 33.709373 267.5Q34.2875 268.01562 35.490623 268.01562ZM36.31875 257.64062L36.459373 256.60938Q37.521873 256.78125 38.13125 257.48438Q38.740623 258.1875 38.740623 259.20312Q38.740623 260.48438 37.9125 261.26562Q37.06875 262.03125 35.50625 262.03125Q34.50625 262.03125 33.75625 261.70312Q32.990623 261.35938 32.615623 260.6875Q32.240623 260.0 32.240623 259.1875Q32.240623 258.1875 32.75625 257.54688Q33.25625 256.89062 34.209373 256.70312L34.365623 257.73438Q33.740623 257.875 33.428123 258.25Q33.1 258.625 33.1 259.15625Q33.1 259.95312 33.678123 260.45312Q34.240623 260.95312 35.475 260.95312Q36.740623 260.95312 37.303123 260.46875Q37.865623 259.98438 37.865623 259.21875Q37.865623 258.59375 37.490623 258.1875Q37.115623 257.76562 36.31875 257.64062ZM37.834373 251.64062Q38.334373 252.23438 38.5375 252.78125Q38.740623 253.3125 38.740623 253.9375Q38.740623 254.96875 38.240623 255.51562Q37.740623 256.0625 36.959373 256.0625Q36.50625 256.0625 36.13125 255.85938Q35.740623 255.65625 35.521873 255.3125Q35.2875 254.96875 35.178123 254.54688Q35.084373 254.25 35.00625 253.60938Q34.865623 252.34375 34.646873 251.73438Q34.428123 251.73438 34.38125 251.73438Q33.725 251.73438 33.459373 252.03125Q33.115623 252.4375 33.115623 253.23438Q33.115623 253.96875 33.38125 254.32812Q33.63125 254.6875 34.2875 254.85938L34.146873 255.89062Q33.490623 255.75 33.084373 255.42188Q32.678123 255.09375 32.459373 254.48438Q32.240623 253.875 32.240623 253.07812Q32.240623 252.28125 32.428123 251.78125Q32.615623 251.28125 32.896873 251.04688Q33.178123 250.8125 33.615623 250.71875Q33.88125 250.67188 34.584373 250.67188L35.990623 250.67188Q37.459373 250.67188 37.85 250.60938Q38.240623 250.53125 38.6 250.32812L38.6 251.4375Q38.271873 251.59375 37.834373 251.64062ZM35.475 251.73438Q35.709373 252.3125 35.88125 253.45312Q35.975 254.10938 36.1 254.375Q36.209373 254.64062 36.428123 254.79688Q36.646873 254.9375 36.928123 254.9375Q37.35 254.9375 37.63125 254.625Q37.9125 254.29688 37.9125 253.6875Q37.9125 253.07812 37.646873 252.60938Q37.38125 252.125 36.9125 251.90625Q36.553123 251.73438 35.865623 251.73438L35.475 251.73438ZM37.6625 246.40625L38.584373 246.25Q38.678123 246.70312 38.678123 247.04688Q38.678123 247.625 38.50625 247.9375Q38.31875 248.25 38.021873 248.39062Q37.725 248.51562 36.771873 248.51562L33.19375 248.51562L33.19375 249.28125L32.38125 249.28125L32.38125 248.51562L30.834375 248.51562L30.209375 247.46875L32.38125 247.46875L32.38125 246.40625L33.19375 246.40625L33.19375 247.46875L36.834373 247.46875Q37.2875 247.46875 37.4125 247.42188Q37.5375 247.35938 37.615623 247.23438Q37.69375 247.10938 37.69375 246.875Q37.69375 246.6875 37.6625 246.40625ZM31.225 245.70312L30.00625 245.70312L30.00625 244.64062L31.225 244.64062L31.225 245.70312ZM38.6 245.70312L32.38125 245.70312L32.38125 244.64062L38.6 244.64062L38.6 245.70312ZM35.490623 243.09375Q33.75625 243.09375 32.928123 242.14062Q32.240623 241.34375 32.240623 240.1875Q32.240623 238.90625 33.084373 238.09375Q33.9125 237.26562 35.396873 237.26562Q36.6 237.26562 37.2875 237.625Q37.975 237.98438 38.365623 238.6875Q38.740623 239.375 38.740623 240.1875Q38.740623 241.48438 37.9125 242.29688Q37.06875 243.09375 35.490623 243.09375ZM35.490623 242.01562Q36.678123 242.01562 37.271873 241.5Q37.865623 240.96875 37.865623 240.1875Q37.865623 239.39062 37.271873 238.875Q36.678123 238.35938 35.459373 238.35938Q34.303123 238.35938 33.709373 238.89062Q33.115623 239.40625 33.115623 240.1875Q33.115623 240.96875 33.709373 241.5Q34.2875 242.01562 35.490623 242.01562ZM38.6 235.70312L32.38125 235.70312L32.38125 234.76562L33.25625 234.76562Q32.240623 234.07812 32.240623 232.78125Q32.240623 232.21875 32.44375 231.75Q32.646873 231.26562 32.975 231.03125Q33.303123 230.79688 33.740623 230.70312Q34.0375 230.65625 34.771873 230.65625L38.6 230.65625L38.6 231.70312L34.81875 231.70312Q34.1625 231.70312 33.85 231.82812Q33.5375 231.95312 33.35 232.26562Q33.146873 232.57812 33.146873 233.0Q33.146873 233.67188 33.584373 234.17188Q34.00625 234.65625 35.19375 234.65625L38.6 234.65625L38.6 235.70312Z" fill-rule="nonzero"/><path fill="#000000" d="M62.396873 120.93458L62.396873 112.34083L63.459373 112.34083L63.459373 117.24708L65.94375 114.71583L67.31875 114.71583L64.92812 117.0127L67.55312 120.93458L66.25625 120.93458L64.19375 117.74708L63.459373 118.46583L63.459373 120.93458L62.396873 120.93458ZM68.39687 113.55958L68.39687 112.34083L69.45937 112.34083L69.45937 113.55958L68.39687 113.55958ZM68.39687 120.93458L68.39687 114.71583L69.45937 114.71583L69.45937 120.93458L68.39687 120.93458ZM73.69375 119.99708L73.85 120.91895Q73.39687 121.0127 73.05312 121.0127Q72.475 121.0127 72.1625 120.84083Q71.85 120.65333 71.70937 120.35645Q71.58437 120.05958 71.58437 119.10645L71.58437 115.52833L70.81875 115.52833L70.81875 114.71583L71.58437 114.71583L71.58437 113.16895L72.63125 112.54395L72.63125 114.71583L73.69375 114.71583L73.69375 115.52833L72.63125 115.52833L72.63125 119.16895Q72.63125 119.62208 72.67812 119.74708Q72.74062 119.87208 72.86562 119.9502Q72.99062 120.02833 73.225 120.02833Q73.4125 120.02833 73.69375 119.99708ZM78.45937 118.65333L79.49062 118.79395Q79.31875 119.85645 78.61562 120.46583Q77.9125 121.0752 76.89687 121.0752Q75.61562 121.0752 74.83437 120.24708Q74.06875 119.40333 74.06875 117.84083Q74.06875 116.84083 74.39687 116.09083Q74.74062 115.3252 75.4125 114.9502Q76.1 114.5752 76.9125 114.5752Q77.9125 114.5752 78.55312 115.09083Q79.20937 115.59083 79.39687 116.54395L78.36562 116.7002Q78.225 116.0752 77.85 115.7627Q77.475 115.43458 76.94375 115.43458Q76.14687 115.43458 75.64687 116.0127Q75.14687 116.5752 75.14687 117.80958Q75.14687 119.0752 75.63125 119.6377Q76.11562 120.2002 76.88125 120.2002Q77.50625 120.2002 77.9125 119.8252Q78.33437 119.4502 78.45937 118.65333ZM80.39687 120.93458L80.39687 112.34083L81.44375 112.34083L81.44375 115.41895Q82.17812 114.5752 83.30312 114.5752Q84.00625 114.5752 84.50625 114.85645Q85.02187 115.12208 85.24062 115.60645Q85.45937 116.0752 85.45937 116.99708L85.45937 120.93458L84.4125 120.93458L84.4125 116.99708Q84.4125 116.2002 84.06875 115.84083Q83.725 115.48145 83.1 115.48145Q82.63125 115.48145 82.20937 115.73145Q81.80312 115.96583 81.61562 116.3877Q81.44375 116.79395 81.44375 117.52833L81.44375 120.93458L80.39687 120.93458ZM91.64687 118.93458L92.74062 119.05958Q92.49062 120.0127 91.7875 120.54395Q91.08437 121.0752 90.00625 121.0752Q88.64687 121.0752 87.83437 120.23145Q87.0375 119.3877 87.0375 117.87208Q87.0375 116.30958 87.85 115.4502Q88.6625 114.5752 89.94375 114.5752Q91.19375 114.5752 91.975 115.41895Q92.77187 116.2627 92.77187 117.80958Q92.77187 117.90333 92.77187 118.09083L88.13125 118.09083Q88.19375 119.12208 88.70937 119.66895Q89.225 120.2002 90.00625 120.2002Q90.58437 120.2002 90.99062 119.90333Q91.4125 119.59083 91.64687 118.93458ZM88.19375 117.23145L91.6625 117.23145Q91.6 116.43458 91.27187 116.04395Q90.75625 115.43458 89.95937 115.43458Q89.225 115.43458 88.725 115.91895Q88.24062 116.40333 88.19375 117.23145ZM94.39687 120.93458L94.39687 114.71583L95.33437 114.71583L95.33437 115.59083Q96.02187 114.5752 97.31875 114.5752Q97.88125 114.5752 98.35 114.77833Q98.83437 114.98145 99.06875 115.30958Q99.30312 115.6377 99.39687 116.0752Q99.44375 116.37208 99.44375 117.10645L99.44375 120.93458L98.39687 120.93458L98.39687 117.15333Q98.39687 116.49708 98.27187 116.18458Q98.14687 115.87208 97.83437 115.68458Q97.52187 115.48145 97.1 115.48145Q96.42812 115.48145 95.92812 115.91895Q95.44375 116.34083 95.44375 117.52833L95.44375 120.93458L94.39687 120.93458Z" fill-rule="nonzero"/><path fill="#000000" d="M63.365623 190.46729L63.365623 181.87354L64.42812 181.87354L64.42812 190.46729L63.365623 190.46729ZM66.00625 187.35791Q66.00625 185.62354 66.95937 184.79541Q67.75625 184.10791 68.9125 184.10791Q70.19375 184.10791 71.00625 184.95166Q71.83437 185.77979 71.83437 187.26416Q71.83437 188.46729 71.475 189.15479Q71.11562 189.84229 70.4125 190.23291Q69.725 190.60791 68.9125 190.60791Q67.61562 190.60791 66.80312 189.77979Q66.00625 188.93604 66.00625 187.35791ZM67.08437 187.35791Q67.08437 188.54541 67.6 189.13916Q68.13125 189.73291 68.9125 189.73291Q69.70937 189.73291 70.225 189.13916Q70.74062 188.54541 70.74062 187.32666Q70.74062 186.17041 70.20937 185.57666Q69.69375 184.98291 68.9125 184.98291Q68.13125 184.98291 67.6 185.57666Q67.08437 186.15479 67.08437 187.35791ZM77.475 190.46729L77.475 189.54541Q76.74062 190.60791 75.49062 190.60791Q74.94375 190.60791 74.45937 190.40479Q73.99062 190.18604 73.75625 189.87354Q73.52187 189.54541 73.42812 189.07666Q73.36562 188.77979 73.36562 188.09229L73.36562 184.24854L74.42812 184.24854L74.42812 187.70166Q74.42812 188.51416 74.49062 188.81104Q74.58437 189.21729 74.89687 189.46729Q75.225 189.70166 75.70937 189.70166Q76.17812 189.70166 76.58437 189.46729Q77.00625 189.21729 77.17812 188.79541Q77.36562 188.37354 77.36562 187.57666L77.36562 184.24854L78.4125 184.24854L78.4125 190.46729L77.475 190.46729ZM80.39687 190.46729L80.39687 184.24854L81.33437 184.24854L81.33437 185.12354Q82.02187 184.10791 83.31875 184.10791Q83.88125 184.10791 84.35 184.31104Q84.83437 184.51416 85.06875 184.84229Q85.30312 185.17041 85.39687 185.60791Q85.44375 185.90479 85.44375 186.63916L85.44375 190.46729L84.39687 190.46729L84.39687 186.68604Q84.39687 186.02979 84.27187 185.71729Q84.14687 185.40479 83.83437 185.21729Q83.52187 185.01416 83.1 185.01416Q82.42812 185.01416 81.92812 185.45166Q81.44375 185.87354 81.44375 187.06104L81.44375 190.46729L80.39687 190.46729ZM87.19375 190.98291L88.225 191.13916Q88.2875 191.60791 88.58437 191.82666Q88.975 192.12354 89.64687 192.12354Q90.38125 192.12354 90.77187 191.82666Q91.17812 191.52979 91.31875 191.01416Q91.4125 190.68604 91.39687 189.65479Q90.70937 190.46729 89.67812 190.46729Q88.39687 190.46729 87.69375 189.54541Q86.99062 188.60791 86.99062 187.32666Q86.99062 186.43604 87.30312 185.68604Q87.63125 184.92041 88.24062 184.51416Q88.85 184.10791 89.67812 184.10791Q90.7875 184.10791 91.50625 184.99854L91.50625 184.24854L92.475 184.24854L92.475 189.62354Q92.475 191.07666 92.17812 191.68604Q91.88125 192.29541 91.24062 192.63916Q90.6 192.99854 89.6625 192.99854Q88.55312 192.99854 87.86562 192.49854Q87.17812 191.99854 87.19375 190.98291ZM88.06875 187.24854Q88.06875 188.46729 88.55312 189.02979Q89.0375 189.59229 89.77187 189.59229Q90.50625 189.59229 90.99062 189.02979Q91.49062 188.46729 91.49062 187.27979Q91.49062 186.13916 90.975 185.56104Q90.475 184.98291 89.75625 184.98291Q89.05312 184.98291 88.55312 185.56104Q88.06875 186.12354 88.06875 187.24854ZM98.64687 188.46729L99.74062 188.59229Q99.49062 189.54541 98.7875 190.07666Q98.08437 190.60791 97.00625 190.60791Q95.64687 190.60791 94.83437 189.76416Q94.0375 188.92041 94.0375 187.40479Q94.0375 185.84229 94.85 184.98291Q95.6625 184.10791 96.94375 184.10791Q98.19375 184.10791 98.975 184.95166Q99.77187 185.79541 99.77187 187.34229Q99.77187 187.43604 99.77187 187.62354L95.13125 187.62354Q95.19375 188.65479 95.70937 189.20166Q96.225 189.73291 97.00625 189.73291Q97.58437 189.73291 97.99062 189.43604Q98.4125 189.12354 98.64687 188.46729ZM95.19375 186.76416L98.6625 186.76416Q98.6 185.96729 98.27187 185.57666Q97.75625 184.96729 96.95937 184.96729Q96.225 184.96729 95.725 185.45166Q95.24062 185.93604 95.19375 186.76416Z" fill-rule="nonzero"/><path fill="#000000" d="M64.39687 260.0L64.39687 253.78125L65.33437 253.78125L65.33437 254.65625Q65.63125 254.1875 66.11562 253.92188Q66.6 253.64062 67.225 253.64062Q67.9125 253.64062 68.35 253.92188Q68.80312 254.20312 68.975 254.71875Q69.725 253.64062 70.89687 253.64062Q71.83437 253.64062 72.31875 254.15625Q72.81875 254.65625 72.81875 255.73438L72.81875 260.0L71.77187 260.0L71.77187 256.07812Q71.77187 255.45312 71.6625 255.17188Q71.56875 254.89062 71.30312 254.71875Q71.0375 254.54688 70.6625 254.54688Q70.00625 254.54688 69.56875 254.98438Q69.14687 255.42188 69.14687 256.39062L69.14687 260.0L68.08437 260.0L68.08437 255.95312Q68.08437 255.25 67.81875 254.90625Q67.56875 254.54688 66.99062 254.54688Q66.5375 254.54688 66.1625 254.78125Q65.7875 255.01562 65.61562 255.46875Q65.44375 255.92188 65.44375 256.76562L65.44375 260.0L64.39687 260.0ZM78.45937 259.23438Q77.86562 259.73438 77.31875 259.9375Q76.7875 260.14062 76.1625 260.14062Q75.13125 260.14062 74.58437 259.64062Q74.0375 259.14062 74.0375 258.35938Q74.0375 257.90625 74.24062 257.53125Q74.44375 257.14062 74.7875 256.92188Q75.13125 256.6875 75.55312 256.57812Q75.85 256.48438 76.49062 256.40625Q77.75625 256.26562 78.36562 256.04688Q78.36562 255.82812 78.36562 255.78125Q78.36562 255.125 78.06875 254.85938Q77.6625 254.51562 76.86562 254.51562Q76.13125 254.51562 75.77187 254.78125Q75.4125 255.03125 75.24062 255.6875L74.20937 255.54688Q74.35 254.89062 74.67812 254.48438Q75.00625 254.07812 75.61562 253.85938Q76.225 253.64062 77.02187 253.64062Q77.81875 253.64062 78.31875 253.82812Q78.81875 254.01562 79.05312 254.29688Q79.2875 254.57812 79.38125 255.01562Q79.42812 255.28125 79.42812 255.98438L79.42812 257.39062Q79.42812 258.85938 79.49062 259.25Q79.56875 259.64062 79.77187 260.0L78.6625 260.0Q78.50625 259.67188 78.45937 259.23438ZM78.36562 256.875Q77.7875 257.10938 76.64687 257.28125Q75.99062 257.375 75.725 257.5Q75.45937 257.60938 75.30312 257.82812Q75.1625 258.04688 75.1625 258.32812Q75.1625 258.75 75.475 259.03125Q75.80312 259.3125 76.4125 259.3125Q77.02187 259.3125 77.49062 259.04688Q77.975 258.78125 78.19375 258.3125Q78.36562 257.95312 78.36562 257.26562L78.36562 256.875ZM80.975 258.14062L82.00625 257.98438Q82.1 258.60938 82.49062 258.9375Q82.89687 259.26562 83.63125 259.26562Q84.35 259.26562 84.69375 258.98438Q85.05312 258.6875 85.05312 258.28125Q85.05312 257.92188 84.74062 257.71875Q84.52187 257.57812 83.6625 257.35938Q82.50625 257.0625 82.05312 256.85938Q81.61562 256.64062 81.38125 256.26562Q81.14687 255.89062 81.14687 255.42188Q81.14687 255.01562 81.33437 254.65625Q81.52187 254.29688 81.85 254.0625Q82.1 253.89062 82.52187 253.76562Q82.94375 253.64062 83.44375 253.64062Q84.1625 253.64062 84.70937 253.85938Q85.27187 254.0625 85.5375 254.42188Q85.80312 254.78125 85.89687 255.375L84.86562 255.51562Q84.80312 255.04688 84.45937 254.78125Q84.13125 254.5 83.50625 254.5Q82.7875 254.5 82.475 254.75Q82.1625 254.98438 82.1625 255.3125Q82.1625 255.51562 82.2875 255.67188Q82.42812 255.84375 82.69375 255.95312Q82.85 256.01562 83.63125 256.21875Q84.75625 256.53125 85.19375 256.71875Q85.63125 256.90625 85.88125 257.26562Q86.13125 257.625 86.13125 258.17188Q86.13125 258.70312 85.81875 259.17188Q85.52187 259.625 84.94375 259.89062Q84.36562 260.14062 83.63125 260.14062Q82.4125 260.14062 81.77187 259.64062Q81.14687 259.125 80.975 258.14062ZM89.69375 259.0625L89.85 259.98438Q89.39687 260.07812 89.05312 260.07812Q88.475 260.07812 88.1625 259.90625Q87.85 259.71875 87.70937 259.42188Q87.58437 259.125 87.58437 258.17188L87.58437 254.59375L86.81875 254.59375L86.81875 253.78125L87.58437 253.78125L87.58437 252.23438L88.63125 251.60938L88.63125 253.78125L89.69375 253.78125L89.69375 254.59375L88.63125 254.59375L88.63125 258.23438Q88.63125 258.6875 88.67812 258.8125Q88.74062 258.9375 88.86562 259.01562Q88.99062 259.09375 89.225 259.09375Q89.4125 259.09375 89.69375 259.0625ZM94.64687 258.0L95.74062 258.125Q95.49062 259.07812 94.7875 259.60938Q94.08437 260.14062 93.00625 260.14062Q91.64687 260.14062 90.83437 259.29688Q90.0375 258.45312 90.0375 256.9375Q90.0375 255.375 90.85 254.51562Q91.6625 253.64062 92.94375 253.64062Q94.19375 253.64062 94.975 254.48438Q95.77187 255.32812 95.77187 256.875Q95.77187 256.96875 95.77187 257.15625L91.13125 257.15625Q91.19375 258.1875 91.70937 258.73438Q92.225 259.26562 93.00625 259.26562Q93.58437 259.26562 93.99062 258.96875Q94.4125 258.65625 94.64687 258.0ZM91.19375 256.29688L94.6625 256.29688Q94.6 255.5 94.27187 255.10938Q93.75625 254.5 92.95937 254.5Q92.225 254.5 91.725 254.98438Q91.24062 255.46875 91.19375 256.29688ZM97.38125 260.0L97.38125 253.78125L98.33437 253.78125L98.33437 254.71875Q98.69375 254.0625 98.99062 253.85938Q99.30312 253.64062 99.67812 253.64062Q100.20937 253.64062 100.75625 253.96875L100.39687 254.95312Q100.00625 254.71875 99.63125 254.71875Q99.27187 254.71875 98.99062 254.9375Q98.725 255.14062 98.61562 255.51562Q98.42812 256.07812 98.42812 256.73438L98.42812 260.0L97.38125 260.0Z" fill-rule="nonzero"/><path fill="#000000" d="M60.00625 326.42334Q60.00625 324.68896 60.959373 323.86084Q61.75625 323.17334 62.9125 323.17334Q64.19375 323.17334 65.00625 324.0171Q65.83437 324.8452 65.83437 326.3296Q65.83437 327.5327 65.475 328.2202Q65.11562 328.9077 64.4125 329.29834Q63.725 329.67334 62.9125 329.67334Q61.615623 329.67334 60.803123 328.8452Q60.00625 328.00146 60.00625 326.42334ZM61.084373 326.42334Q61.084373 327.61084 61.6 328.2046Q62.13125 328.79834 62.9125 328.79834Q63.709373 328.79834 64.225 328.2046Q64.74062 327.61084 64.74062 326.3921Q64.74062 325.23584 64.20937 324.6421Q63.69375 324.04834 62.9125 324.04834Q62.13125 324.04834 61.6 324.6421Q61.084373 325.2202 61.084373 326.42334ZM71.45937 328.7671Q70.86562 329.2671 70.31875 329.4702Q69.7875 329.67334 69.1625 329.67334Q68.13125 329.67334 67.58437 329.17334Q67.0375 328.67334 67.0375 327.8921Q67.0375 327.43896 67.24062 327.06396Q67.44375 326.67334 67.7875 326.4546Q68.13125 326.2202 68.55312 326.11084Q68.85 326.0171 69.49062 325.93896Q70.75625 325.79834 71.36562 325.5796Q71.36562 325.36084 71.36562 325.31396Q71.36562 324.6577 71.06875 324.3921Q70.6625 324.04834 69.86562 324.04834Q69.13125 324.04834 68.77187 324.31396Q68.4125 324.56396 68.24062 325.2202L67.20937 325.0796Q67.35 324.42334 67.67812 324.0171Q68.00625 323.61084 68.61562 323.3921Q69.225 323.17334 70.02187 323.17334Q70.81875 323.17334 71.31875 323.36084Q71.81875 323.54834 72.05312 323.8296Q72.2875 324.11084 72.38125 324.54834Q72.42812 324.81396 72.42812 325.5171L72.42812 326.92334Q72.42812 328.3921 72.49062 328.7827Q72.56875 329.17334 72.77187 329.5327L71.6625 329.5327Q71.50625 329.2046 71.45937 328.7671ZM71.36562 326.4077Q70.7875 326.6421 69.64687 326.81396Q68.99062 326.9077 68.725 327.0327Q68.45937 327.1421 68.30312 327.36084Q68.1625 327.5796 68.1625 327.86084Q68.1625 328.2827 68.475 328.56396Q68.80312 328.8452 69.4125 328.8452Q70.02187 328.8452 70.49062 328.5796Q70.975 328.31396 71.19375 327.8452Q71.36562 327.48584 71.36562 326.79834L71.36562 326.4077ZM74.39687 329.5327L74.39687 320.93896L75.45937 320.93896L75.45937 325.8452L77.94375 323.31396L79.31875 323.31396L76.92812 325.61084L79.55312 329.5327L78.25625 329.5327L76.19375 326.3452L75.45937 327.06396L75.45937 329.5327L74.39687 329.5327ZM82.69375 328.5952L82.85 329.5171Q82.39687 329.61084 82.05312 329.61084Q81.475 329.61084 81.1625 329.43896Q80.85 329.25146 80.70937 328.9546Q80.58437 328.6577 80.58437 327.7046L80.58437 324.12646L79.81875 324.12646L79.81875 323.31396L80.58437 323.31396L80.58437 321.7671L81.63125 321.1421L81.63125 323.31396L82.69375 323.31396L82.69375 324.12646L81.63125 324.12646L81.63125 327.7671Q81.63125 328.2202 81.67812 328.3452Q81.74062 328.4702 81.86562 328.54834Q81.99062 328.62646 82.225 328.62646Q82.4125 328.62646 82.69375 328.5952ZM83.38125 329.5327L83.38125 323.31396L84.33437 323.31396L84.33437 324.25146Q84.69375 323.5952 84.99062 323.3921Q85.30312 323.17334 85.67812 323.17334Q86.20937 323.17334 86.75625 323.50146L86.39687 324.48584Q86.00625 324.25146 85.63125 324.25146Q85.27187 324.25146 84.99062 324.4702Q84.725 324.67334 84.61562 325.04834Q84.42812 325.61084 84.42812 326.2671L84.42812 329.5327L83.38125 329.5327ZM91.64687 327.5327L92.74062 327.6577Q92.49062 328.61084 91.7875 329.1421Q91.08437 329.67334 90.00625 329.67334Q88.64687 329.67334 87.83437 328.8296Q87.0375 327.98584 87.0375 326.4702Q87.0375 324.9077 87.85 324.04834Q88.6625 323.17334 89.94375 323.17334Q91.19375 323.17334 91.975 324.0171Q92.77187 324.86084 92.77187 326.4077Q92.77187 326.50146 92.77187 326.68896L88.13125 326.68896Q88.19375 327.7202 88.70937 328.2671Q89.225 328.79834 90.00625 328.79834Q90.58437 328.79834 90.99062 328.50146Q91.4125 328.18896 91.64687 327.5327ZM88.19375 325.8296L91.6625 325.8296Q91.6 325.0327 91.27187 324.6421Q90.75625 324.0327 89.95937 324.0327Q89.225 324.0327 88.725 324.5171Q88.24062 325.00146 88.19375 325.8296ZM98.64687 327.5327L99.74062 327.6577Q99.49062 328.61084 98.7875 329.1421Q98.08437 329.67334 97.00625 329.67334Q95.64687 329.67334 94.83437 328.8296Q94.0375 327.98584 94.0375 326.4702Q94.0375 324.9077 94.85 324.04834Q95.6625 323.17334 96.94375 323.17334Q98.19375 323.17334 98.975 324.0171Q99.77187 324.86084 99.77187 326.4077Q99.77187 326.50146 99.77187 326.68896L95.13125 326.68896Q95.19375 327.7202 95.70937 328.2671Q96.225 328.79834 97.00625 328.79834Q97.58437 328.79834 97.99062 328.50146Q98.4125 328.18896 98.64687 327.5327ZM95.19375 325.8296L98.6625 325.8296Q98.6 325.0327 98.27187 324.6421Q97.75625 324.0327 96.95937 324.0327Q96.225 324.0327 95.725 324.5171Q95.24062 325.00146 95.19375 325.8296Z" fill-rule="nonzero"/><path fill="#000000" d="M72.00625 395.95605Q72.00625 394.22168 72.95937 393.39355Q73.75625 392.70605 74.9125 392.70605Q76.19375 392.70605 77.00625 393.5498Q77.83437 394.37793 77.83437 395.8623Q77.83437 397.06543 77.475 397.75293Q77.11562 398.44043 76.4125 398.83105Q75.725 399.20605 74.9125 399.20605Q73.61562 399.20605 72.80312 398.37793Q72.00625 397.53418 72.00625 395.95605ZM73.08437 395.95605Q73.08437 397.14355 73.6 397.7373Q74.13125 398.33105 74.9125 398.33105Q75.70937 398.33105 76.225 397.7373Q76.74062 397.14355 76.74062 395.9248Q76.74062 394.76855 76.20937 394.1748Q75.69375 393.58105 74.9125 393.58105Q74.13125 393.58105 73.6 394.1748Q73.08437 394.75293 73.08437 395.95605ZM79.64687 399.06543L79.64687 393.65918L78.70937 393.65918L78.70937 392.84668L79.64687 392.84668L79.64687 392.1748Q79.64687 391.5498 79.75625 391.25293Q79.9125 390.83105 80.2875 390.58105Q80.67812 390.33105 81.36562 390.33105Q81.81875 390.33105 82.35 390.44043L82.19375 391.34668Q81.86562 391.2998 81.56875 391.2998Q81.08437 391.2998 80.88125 391.50293Q80.69375 391.70605 80.69375 392.26855L80.69375 392.84668L81.9125 392.84668L81.9125 393.65918L80.69375 393.65918L80.69375 399.06543L79.64687 399.06543ZM82.64687 399.06543L82.64687 393.65918L81.70937 393.65918L81.70937 392.84668L82.64687 392.84668L82.64687 392.1748Q82.64687 391.5498 82.75625 391.25293Q82.9125 390.83105 83.2875 390.58105Q83.67812 390.33105 84.36562 390.33105Q84.81875 390.33105 85.35 390.44043L85.19375 391.34668Q84.86562 391.2998 84.56875 391.2998Q84.08437 391.2998 83.88125 391.50293Q83.69375 391.70605 83.69375 392.26855L83.69375 392.84668L84.9125 392.84668L84.9125 393.65918L83.69375 393.65918L83.69375 399.06543L82.64687 399.06543ZM85.39687 391.69043L85.39687 390.47168L86.45937 390.47168L86.45937 391.69043L85.39687 391.69043ZM85.39687 399.06543L85.39687 392.84668L86.45937 392.84668L86.45937 399.06543L85.39687 399.06543ZM92.45937 396.78418L93.49062 396.9248Q93.31875 397.9873 92.61562 398.59668Q91.9125 399.20605 90.89687 399.20605Q89.61562 399.20605 88.83437 398.37793Q88.06875 397.53418 88.06875 395.97168Q88.06875 394.97168 88.39687 394.22168Q88.74062 393.45605 89.4125 393.08105Q90.1 392.70605 90.9125 392.70605Q91.9125 392.70605 92.55312 393.22168Q93.20937 393.72168 93.39687 394.6748L92.36562 394.83105Q92.225 394.20605 91.85 393.89355Q91.475 393.56543 90.94375 393.56543Q90.14687 393.56543 89.64687 394.14355Q89.14687 394.70605 89.14687 395.94043Q89.14687 397.20605 89.63125 397.76855Q90.11562 398.33105 90.88125 398.33105Q91.50625 398.33105 91.9125 397.95605Q92.33437 397.58105 92.45937 396.78418ZM98.64687 397.06543L99.74062 397.19043Q99.49062 398.14355 98.7875 398.6748Q98.08437 399.20605 97.00625 399.20605Q95.64687 399.20605 94.83437 398.3623Q94.0375 397.51855 94.0375 396.00293Q94.0375 394.44043 94.85 393.58105Q95.6625 392.70605 96.94375 392.70605Q98.19375 392.70605 98.975 393.5498Q99.77187 394.39355 99.77187 395.94043Q99.77187 396.03418 99.77187 396.22168L95.13125 396.22168Q95.19375 397.25293 95.70937 397.7998Q96.225 398.33105 97.00625 398.33105Q97.58437 398.33105 97.99062 398.03418Q98.4125 397.72168 98.64687 397.06543ZM95.19375 395.3623L98.6625 395.3623Q98.6 394.56543 98.27187 394.1748Q97.75625 393.56543 96.95937 393.56543Q96.225 393.56543 95.725 394.0498Q95.24062 394.53418 95.19375 395.3623Z" fill-rule="nonzero"/><path fill="#000000" d="M103.6 454.76562Q103.6 453.23438 103.9125 452.3125Q104.225 451.375 104.83437 450.875Q105.45937 450.375 106.39687 450.375Q107.08437 450.375 107.6 450.65625Q108.13125 450.9375 108.475 451.46875Q108.81875 451.98438 109.00625 452.73438Q109.19375 453.48438 109.19375 454.76562Q109.19375 456.28125 108.88125 457.20312Q108.58437 458.125 107.95937 458.64062Q107.35 459.14062 106.39687 459.14062Q105.1625 459.14062 104.44375 458.25Q103.6 457.1875 103.6 454.76562ZM104.67812 454.76562Q104.67812 456.875 105.17812 457.57812Q105.67812 458.28125 106.39687 458.28125Q107.13125 458.28125 107.61562 457.57812Q108.11562 456.875 108.11562 454.76562Q108.11562 452.64062 107.61562 451.95312Q107.13125 451.25 106.38125 451.25Q105.6625 451.25 105.225 451.85938Q104.67812 452.64062 104.67812 454.76562Z" fill-rule="nonzero"/><path fill="#000000" d="M244.55 454.76562Q244.55 453.23438 244.8625 452.3125Q245.175 451.375 245.78438 450.875Q246.40938 450.375 247.34688 450.375Q248.03438 450.375 248.55 450.65625Q249.08125 450.9375 249.425 451.46875Q249.76875 451.98438 249.95625 452.73438Q250.14375 453.48438 250.14375 454.76562Q250.14375 456.28125 249.83125 457.20312Q249.53438 458.125 248.90938 458.64062Q248.3 459.14062 247.34688 459.14062Q246.1125 459.14062 245.39375 458.25Q244.55 457.1875 244.55 454.76562ZM245.62813 454.76562Q245.62813 456.875 246.12813 457.57812Q246.62813 458.28125 247.34688 458.28125Q248.08125 458.28125 248.56563 457.57812Q249.06563 456.875 249.06563 454.76562Q249.06563 452.64062 248.56563 451.95312Q248.08125 451.25 247.33125 451.25Q246.6125 451.25 246.175 451.85938Q245.62813 452.64062 245.62813 454.76562ZM252.14375 459.0L252.14375 457.79688L253.34688 457.79688L253.34688 459.0L252.14375 459.0ZM260.09686 457.98438L260.09686 459.0L254.40938 459.0Q254.40938 458.625 254.53438 458.26562Q254.75313 457.6875 255.22188 457.125Q255.70625 456.5625 256.6125 455.82812Q258.01874 454.67188 258.5031 454.0Q259.0031 453.32812 259.0031 452.73438Q259.0031 452.10938 258.55 451.6875Q258.09686 451.25 257.3781 451.25Q256.6125 451.25 256.15936 451.70312Q255.70625 452.15625 255.69063 452.96875L254.6125 452.85938Q254.72188 451.64062 255.44063 451.01562Q256.175 450.375 257.40936 450.375Q258.64374 450.375 259.3625 451.0625Q260.08124 451.75 260.08124 452.76562Q260.08124 453.28125 259.8625 453.78125Q259.65936 454.26562 259.15936 454.82812Q258.675 455.375 257.55 456.32812Q256.59686 457.125 256.3156 457.42188Q256.05 457.70312 255.87813 457.98438L260.09686 457.98438Z" fill-rule="nonzero"/><path fill="#000000" d="M390.5 454.76562Q390.5 453.23438 390.8125 452.3125Q391.125 451.375 391.73438 450.875Q392.35938 450.375 393.29688 450.375Q393.98438 450.375 394.5 450.65625Q395.03125 450.9375 395.375 451.46875Q395.71875 451.98438 395.90625 452.73438Q396.09375 453.48438 396.09375 454.76562Q396.09375 456.28125 395.78125 457.20312Q395.48438 458.125 394.85938 458.64062Q394.25 459.14062 393.29688 459.14062Q392.0625 459.14062 391.34375 458.25Q390.5 457.1875 390.5 454.76562ZM391.57812 454.76562Q391.57812 456.875 392.07812 457.57812Q392.57812 458.28125 393.29688 458.28125Q394.03125 458.28125 394.51562 457.57812Q395.01562 456.875 395.01562 454.76562Q395.01562 452.64062 394.51562 451.95312Q394.03125 451.25 393.28125 451.25Q392.5625 451.25 392.125 451.85938Q391.57812 452.64062 391.57812 454.76562ZM398.09375 459.0L398.09375 457.79688L399.29688 457.79688L399.29688 459.0L398.09375 459.0ZM403.875 459.0L403.875 456.9375L400.15625 456.9375L400.15625 455.96875L404.07812 450.40625L404.9375 450.40625L404.9375 455.96875L406.09375 455.96875L406.09375 456.9375L404.9375 456.9375L404.9375 459.0L403.875 459.0ZM403.875 455.96875L403.875 452.10938L401.1875 455.96875L403.875 455.96875Z" fill-rule="nonzero"/><path fill="#000000" d="M536.45 454.76562Q536.45 453.23438 536.7625 452.3125Q537.075 451.375 537.6844 450.875Q538.3094 450.375 539.2469 450.375Q539.9344 450.375 540.45 450.65625Q540.98126 450.9375 541.325 451.46875Q541.66876 451.98438 541.85626 452.73438Q542.04376 453.48438 542.04376 454.76562Q542.04376 456.28125 541.73126 457.20312Q541.4344 458.125 540.8094 458.64062Q540.2 459.14062 539.2469 459.14062Q538.0125 459.14062 537.29376 458.25Q536.45 457.1875 536.45 454.76562ZM537.52814 454.76562Q537.52814 456.875 538.02814 457.57812Q538.52814 458.28125 539.2469 458.28125Q539.98126 458.28125 540.46564 457.57812Q540.96564 456.875 540.96564 454.76562Q540.96564 452.64062 540.46564 451.95312Q539.98126 451.25 539.23126 451.25Q538.5125 451.25 538.075 451.85938Q537.52814 452.64062 537.52814 454.76562ZM544.04376 459.0L544.04376 457.79688L545.2469 457.79688L545.2469 459.0L544.04376 459.0ZM551.91876 452.51562L550.8719 452.59375Q550.73126 451.96875 550.48126 451.6875Q550.04376 451.23438 549.41876 451.23438Q548.91876 451.23438 548.52814 451.51562Q548.04376 451.89062 547.7469 452.59375Q547.46564 453.28125 547.45 454.5625Q547.825 453.98438 548.3719 453.70312Q548.9344 453.42188 549.54376 453.42188Q550.59064 453.42188 551.325 454.20312Q552.075 454.98438 552.075 456.20312Q552.075 457.01562 551.71564 457.71875Q551.3719 458.40625 550.7625 458.78125Q550.15314 459.14062 549.3875 459.14062Q548.0594 459.14062 547.23126 458.17188Q546.40314 457.20312 546.40314 454.98438Q546.40314 452.48438 547.325 451.35938Q548.1219 450.375 549.48126 450.375Q550.4969 450.375 551.1375 450.95312Q551.79376 451.51562 551.91876 452.51562ZM547.6219 456.21875Q547.6219 456.76562 547.84064 457.26562Q548.075 457.75 548.48126 458.01562Q548.90314 458.28125 549.3719 458.28125Q550.02814 458.28125 550.5125 457.75Q550.9969 457.20312 550.9969 456.28125Q550.9969 455.39062 550.5125 454.875Q550.04376 454.35938 549.325 454.35938Q548.60626 454.35938 548.10626 454.875Q547.6219 455.39062 547.6219 456.21875Z" fill-rule="nonzero"/><path fill="#000000" d="M682.4 454.76562Q682.4 453.23438 682.7125 452.3125Q683.025 451.375 683.6344 450.875Q684.2594 450.375 685.1969 450.375Q685.8844 450.375 686.4 450.65625Q686.9313 450.9375 687.275 451.46875Q687.6188 451.98438 687.8063 452.73438Q687.9938 453.48438 687.9938 454.76562Q687.9938 456.28125 687.6813 457.20312Q687.3844 458.125 686.7594 458.64062Q686.15 459.14062 685.1969 459.14062Q683.9625 459.14062 683.2438 458.25Q682.4 457.1875 682.4 454.76562ZM683.47815 454.76562Q683.47815 456.875 683.97815 457.57812Q684.47815 458.28125 685.1969 458.28125Q685.9313 458.28125 686.41565 457.57812Q686.91565 456.875 686.91565 454.76562Q686.91565 452.64062 686.41565 451.95312Q685.9313 451.25 685.1813 451.25Q684.4625 451.25 684.025 451.85938Q683.47815 452.64062 683.47815 454.76562ZM689.9938 459.0L689.9938 457.79688L691.1969 457.79688L691.1969 459.0L689.9938 459.0ZM694.025 454.34375Q693.3688 454.09375 693.04065 453.65625Q692.72815 453.20312 692.72815 452.59375Q692.72815 451.65625 693.4 451.01562Q694.0875 450.375 695.1969 450.375Q696.3219 450.375 697.0094 451.03125Q697.6969 451.6875 697.6969 452.625Q697.6969 453.21875 697.3844 453.65625Q697.0719 454.09375 696.4313 454.34375Q697.22815 454.59375 697.6344 455.17188Q698.04065 455.75 698.04065 456.54688Q698.04065 457.64062 697.2594 458.39062Q696.4938 459.14062 695.2125 459.14062Q693.9469 459.14062 693.16565 458.39062Q692.3844 457.64062 692.3844 456.51562Q692.3844 455.67188 692.8063 455.10938Q693.2438 454.54688 694.025 454.34375ZM693.8063 452.54688Q693.8063 453.15625 694.1969 453.54688Q694.60315 453.9375 695.22815 453.9375Q695.8375 453.9375 696.22815 453.5625Q696.6188 453.17188 696.6188 452.60938Q696.6188 452.03125 696.2125 451.64062Q695.8063 451.23438 695.2125 451.23438Q694.60315 451.23438 694.1969 451.625Q693.8063 452.01562 693.8063 452.54688ZM693.47815 456.51562Q693.47815 456.96875 693.6813 457.39062Q693.9 457.8125 694.3219 458.04688Q694.7438 458.28125 695.22815 458.28125Q695.97815 458.28125 696.4625 457.79688Q696.9625 457.3125 696.9625 456.5625Q696.9625 455.79688 696.4625 455.29688Q695.9625 454.79688 695.1969 454.79688Q694.4469 454.79688 693.9625 455.29688Q693.47815 455.78125 693.47815 456.51562Z" fill-rule="nonzero"/><path fill="#cfe2f3" d="M263.5 512.4C263.5 511.84772 263.94772 511.4 264.5 511.4L274.5 511.4C275.05228 511.4 275.5 511.84772 275.5 512.4L275.5 522.4C275.5 522.9523 275.05228 523.4 274.5 523.4L264.5 523.4C263.94772 523.4 263.5 522.9523 263.5 522.4Z" fill-rule="nonzero"/><path fill="#1a1a1a" d="M284.42188 521.4L284.42188 512.8063L287.67188 512.8063Q288.51562 512.8063 288.96875 512.8844Q289.60938 512.9938 290.03125 513.29065Q290.46875 513.5875 290.71875 514.1188Q290.98438 514.65 290.98438 515.29065Q290.98438 516.3844 290.28125 517.15Q289.59375 517.9 287.76562 517.9L285.5625 517.9L285.5625 521.4L284.42188 521.4ZM285.5625 516.9L287.78125 516.9Q288.89062 516.9 289.34375 516.4938Q289.8125 516.0719 289.8125 515.3219Q289.8125 514.79065 289.53125 514.41565Q289.26562 514.025 288.82812 513.9Q288.53125 513.8219 287.76562 513.8219L285.5625 513.8219L285.5625 516.9ZM292.28125 521.4L292.28125 515.1813L293.23438 515.1813L293.23438 516.1188Q293.59375 515.4625 293.89062 515.2594Q294.20312 515.04065 294.57812 515.04065Q295.10938 515.04065 295.65625 515.3688L295.29688 516.35315Q294.90625 516.1188 294.53125 516.1188Q294.17188 516.1188 293.89062 516.3375Q293.625 516.54065 293.51562 516.91565Q293.32812 517.47815 293.32812 518.1344L293.32812 521.4L292.28125 521.4ZM300.54688 519.4L301.64062 519.525Q301.39062 520.47815 300.6875 521.0094Q299.98438 521.54065 298.90625 521.54065Q297.54688 521.54065 296.73438 520.6969Q295.9375 519.85315 295.9375 518.3375Q295.9375 516.775 296.75 515.91565Q297.5625 515.04065 298.84375 515.04065Q300.09375 515.04065 300.875 515.8844Q301.67188 516.72815 301.67188 518.275Q301.67188 518.3688 301.67188 518.5563L297.03125 518.5563Q297.09375 519.5875 297.60938 520.1344Q298.125 520.66565 298.90625 520.66565Q299.48438 520.66565 299.89062 520.3688Q300.3125 520.0563 300.54688 519.4ZM297.09375 517.6969L300.5625 517.6969Q300.5 516.9 300.17188 516.5094Q299.65625 515.9 298.85938 515.9Q298.125 515.9 297.625 516.3844Q297.14062 516.8688 297.09375 517.6969ZM312.5625 518.3844L313.6875 518.6813Q313.32812 520.0719 312.40625 520.8063Q311.48438 521.54065 310.14062 521.54065Q308.75 521.54065 307.875 520.97815Q307.0 520.41565 306.54688 519.35315Q306.09375 518.275 306.09375 517.04065Q306.09375 515.6969 306.60938 514.6969Q307.125 513.6969 308.0625 513.1813Q309.01562 512.66565 310.15625 512.66565Q311.4375 512.66565 312.3125 513.3219Q313.20312 513.97815 313.54688 515.16565L312.42188 515.4313Q312.125 514.4938 311.54688 514.0719Q310.98438 513.6344 310.125 513.6344Q309.14062 513.6344 308.46875 514.1188Q307.8125 514.5875 307.53125 515.3844Q307.26562 516.1813 307.26562 517.04065Q307.26562 518.1344 307.57812 518.9469Q307.90625 519.7594 308.57812 520.16565Q309.25 520.5719 310.04688 520.5719Q311.0 520.5719 311.65625 520.025Q312.32812 519.47815 312.5625 518.3844ZM319.375 521.4L319.375 520.47815Q318.64062 521.54065 317.39062 521.54065Q316.84375 521.54065 316.35938 521.3375Q315.89062 521.1188 315.65625 520.8063Q315.42188 520.47815 315.32812 520.0094Q315.26562 519.7125 315.26562 519.025L315.26562 515.1813L316.32812 515.1813L316.32812 518.6344Q316.32812 519.4469 316.39062 519.7438Q316.48438 520.15 316.79688 520.4Q317.125 520.6344 317.60938 520.6344Q318.07812 520.6344 318.48438 520.4Q318.90625 520.15 319.07812 519.72815Q319.26562 519.3063 319.26562 518.5094L319.26562 515.1813L320.3125 515.1813L320.3125 521.4L319.375 521.4ZM324.59375 520.4625L324.75 521.3844Q324.29688 521.47815 323.95312 521.47815Q323.375 521.47815 323.0625 521.3063Q322.75 521.1188 322.60938 520.8219Q322.48438 520.525 322.48438 519.5719L322.48438 515.9938L321.71875 515.9938L321.71875 515.1813L322.48438 515.1813L322.48438 513.6344L323.53125 513.0094L323.53125 515.1813L324.59375 515.1813L324.59375 515.9938L323.53125 515.9938L323.53125 519.6344Q323.53125 520.0875 323.57812 520.2125Q323.64062 520.3375 323.76562 520.41565Q323.89062 520.4938 324.125 520.4938Q324.3125 520.4938 324.59375 520.4625ZM324.90625 518.29065Q324.90625 516.5563 325.85938 515.72815Q326.65625 515.04065 327.8125 515.04065Q329.09375 515.04065 329.90625 515.8844Q330.73438 516.7125 330.73438 518.1969Q330.73438 519.4 330.375 520.0875Q330.01562 520.775 329.3125 521.16565Q328.625 521.54065 327.8125 521.54065Q326.51562 521.54065 325.70312 520.7125Q324.90625 519.8688 324.90625 518.29065ZM325.98438 518.29065Q325.98438 519.47815 326.5 520.0719Q327.03125 520.66565 327.8125 520.66565Q328.60938 520.66565 329.125 520.0719Q329.64062 519.47815 329.64062 518.2594Q329.64062 517.10315 329.10938 516.5094Q328.59375 515.91565 327.8125 515.91565Q327.03125 515.91565 326.5 516.5094Q325.98438 517.0875 325.98438 518.29065ZM334.01562 521.4L331.65625 515.1813L332.76562 515.1813L334.10938 518.9Q334.3125 519.5094 334.5 520.15Q334.64062 519.66565 334.89062 518.97815L336.28125 515.1813L337.35938 515.1813L335.0 521.4L334.01562 521.4ZM342.54688 519.4L343.64062 519.525Q343.39062 520.47815 342.6875 521.0094Q341.98438 521.54065 340.90625 521.54065Q339.54688 521.54065 338.73438 520.6969Q337.9375 519.85315 337.9375 518.3375Q337.9375 516.775 338.75 515.91565Q339.5625 515.04065 340.84375 515.04065Q342.09375 515.04065 342.875 515.8844Q343.67188 516.72815 343.67188 518.275Q343.67188 518.3688 343.67188 518.5563L339.03125 518.5563Q339.09375 519.5875 339.60938 520.1344Q340.125 520.66565 340.90625 520.66565Q341.48438 520.66565 341.89062 520.3688Q342.3125 520.0563 342.54688 519.4ZM339.09375 517.6969L342.5625 517.6969Q342.5 516.9 342.17188 516.5094Q341.65625 515.9 340.85938 515.9Q340.125 515.9 339.625 516.3844Q339.14062 516.8688 339.09375 517.6969ZM345.28125 521.4L345.28125 515.1813L346.23438 515.1813L346.23438 516.1188Q346.59375 515.4625 346.89062 515.2594Q347.20312 515.04065 347.57812 515.04065Q348.10938 515.04065 348.65625 515.3688L348.29688 516.35315Q347.90625 516.1188 347.53125 516.1188Q347.17188 516.1188 346.89062 516.3375Q346.625 516.54065 346.51562 516.91565Q346.32812 517.47815 346.32812 518.1344L346.32812 521.4L345.28125 521.4Z" fill-rule="nonzero"/><path fill="#3c78d8" d="M364.5 512.4C364.5 511.84772 364.94772 511.4 365.5 511.4L375.5 511.4C376.05228 511.4 376.5 511.84772 376.5 512.4L376.5 522.4C376.5 522.9523 376.05228 523.4 375.5 523.4L365.5 523.4C364.94772 523.4 364.5 522.9523 364.5 522.4Z" fill-rule="nonzero"/><path fill="#1a1a1a" d="M385.42188 521.4L385.42188 512.8063L388.67188 512.8063Q389.51562 512.8063 389.96875 512.8844Q390.60938 512.9938 391.03125 513.29065Q391.46875 513.5875 391.71875 514.1188Q391.98438 514.65 391.98438 515.29065Q391.98438 516.3844 391.28125 517.15Q390.59375 517.9 388.76562 517.9L386.5625 517.9L386.5625 521.4L385.42188 521.4ZM386.5625 516.9L388.78125 516.9Q389.89062 516.9 390.34375 516.4938Q390.8125 516.0719 390.8125 515.3219Q390.8125 514.79065 390.53125 514.41565Q390.26562 514.025 389.82812 513.9Q389.53125 513.8219 388.76562 513.8219L386.5625 513.8219L386.5625 516.9ZM392.90625 518.29065Q392.90625 516.5563 393.85938 515.72815Q394.65625 515.04065 395.8125 515.04065Q397.09375 515.04065 397.90625 515.8844Q398.73438 516.7125 398.73438 518.1969Q398.73438 519.4 398.375 520.0875Q398.01562 520.775 397.3125 521.16565Q396.625 521.54065 395.8125 521.54065Q394.51562 521.54065 393.70312 520.7125Q392.90625 519.8688 392.90625 518.29065ZM393.98438 518.29065Q393.98438 519.47815 394.5 520.0719Q395.03125 520.66565 395.8125 520.66565Q396.60938 520.66565 397.125 520.0719Q397.64062 519.47815 397.64062 518.2594Q397.64062 517.10315 397.10938 516.5094Q396.59375 515.91565 395.8125 515.91565Q395.03125 515.91565 394.5 516.5094Q393.98438 517.0875 393.98438 518.29065ZM399.875 519.54065L400.90625 519.3844Q401.0 520.0094 401.39062 520.3375Q401.79688 520.66565 402.53125 520.66565Q403.25 520.66565 403.59375 520.3844Q403.95312 520.0875 403.95312 519.6813Q403.95312 519.3219 403.64062 519.1188Q403.42188 518.97815 402.5625 518.7594Q401.40625 518.4625 400.95312 518.2594Q400.51562 518.04065 400.28125 517.66565Q400.04688 517.29065 400.04688 516.8219Q400.04688 516.41565 400.23438 516.0563Q400.42188 515.6969 400.75 515.4625Q401.0 515.29065 401.42188 515.16565Q401.84375 515.04065 402.34375 515.04065Q403.0625 515.04065 403.60938 515.2594Q404.17188 515.4625 404.4375 515.8219Q404.70312 516.1813 404.79688 516.775L403.76562 516.91565Q403.70312 516.4469 403.35938 516.1813Q403.03125 515.9 402.40625 515.9Q401.6875 515.9 401.375 516.15Q401.0625 516.3844 401.0625 516.7125Q401.0625 516.91565 401.1875 517.0719Q401.32812 517.2438 401.59375 517.35315Q401.75 517.41565 402.53125 517.6188Q403.65625 517.9313 404.09375 518.1188Q404.53125 518.3063 404.78125 518.66565Q405.03125 519.025 405.03125 519.5719Q405.03125 520.10315 404.71875 520.5719Q404.42188 521.025 403.84375 521.29065Q403.26562 521.54065 402.53125 521.54065Q401.3125 521.54065 400.67188 521.04065Q400.04688 520.525 399.875 519.54065ZM408.59375 520.4625L408.75 521.3844Q408.29688 521.47815 407.95312 521.47815Q407.375 521.47815 407.0625 521.3063Q406.75 521.1188 406.60938 520.8219Q406.48438 520.525 406.48438 519.5719L406.48438 515.9938L405.71875 515.9938L405.71875 515.1813L406.48438 515.1813L406.48438 513.6344L407.53125 513.0094L407.53125 515.1813L408.59375 515.1813L408.59375 515.9938L407.53125 515.9938L407.53125 519.6344Q407.53125 520.0875 407.57812 520.2125Q407.64062 520.3375 407.76562 520.41565Q407.89062 520.4938 408.125 520.4938Q408.3125 520.4938 408.59375 520.4625ZM418.5625 518.3844L419.6875 518.6813Q419.32812 520.0719 418.40625 520.8063Q417.48438 521.54065 416.14062 521.54065Q414.75 521.54065 413.875 520.97815Q413.0 520.41565 412.54688 519.35315Q412.09375 518.275 412.09375 517.04065Q412.09375 515.6969 412.60938 514.6969Q413.125 513.6969 414.0625 513.1813Q415.01562 512.66565 416.15625 512.66565Q417.4375 512.66565 418.3125 513.3219Q419.20312 513.97815 419.54688 515.16565L418.42188 515.4313Q418.125 514.4938 417.54688 514.0719Q416.98438 513.6344 416.125 513.6344Q415.14062 513.6344 414.46875 514.1188Q413.8125 514.5875 413.53125 515.3844Q413.26562 516.1813 413.26562 517.04065Q413.26562 518.1344 413.57812 518.9469Q413.90625 519.7594 414.57812 520.16565Q415.25 520.5719 416.04688 520.5719Q417.0 520.5719 417.65625 520.025Q418.32812 519.47815 418.5625 518.3844ZM425.375 521.4L425.375 520.47815Q424.64062 521.54065 423.39062 521.54065Q422.84375 521.54065 422.35938 521.3375Q421.89062 521.1188 421.65625 520.8063Q421.42188 520.47815 421.32812 520.0094Q421.26562 519.7125 421.26562 519.025L421.26562 515.1813L422.32812 515.1813L422.32812 518.6344Q422.32812 519.4469 422.39062 519.7438Q422.48438 520.15 422.79688 520.4Q423.125 520.6344 423.60938 520.6344Q424.07812 520.6344 424.48438 520.4Q424.90625 520.15 425.07812 519.72815Q425.26562 519.3063 425.26562 518.5094L425.26562 515.1813L426.3125 515.1813L426.3125 521.4L425.375 521.4ZM430.59375 520.4625L430.75 521.3844Q430.29688 521.47815 429.95312 521.47815Q429.375 521.47815 429.0625 521.3063Q428.75 521.1188 428.60938 520.8219Q428.48438 520.525 428.48438 519.5719L428.48438 515.9938L427.71875 515.9938L427.71875 515.1813L428.48438 515.1813L428.48438 513.6344L429.53125 513.0094L429.53125 515.1813L430.59375 515.1813L430.59375 515.9938L429.53125 515.9938L429.53125 519.6344Q429.53125 520.0875 429.57812 520.2125Q429.64062 520.3375 429.76562 520.41565Q429.89062 520.4938 430.125 520.4938Q430.3125 520.4938 430.59375 520.4625ZM430.90625 518.29065Q430.90625 516.5563 431.85938 515.72815Q432.65625 515.04065 433.8125 515.04065Q435.09375 515.04065 435.90625 515.8844Q436.73438 516.7125 436.73438 518.1969Q436.73438 519.4 436.375 520.0875Q436.01562 520.775 435.3125 521.16565Q434.625 521.54065 433.8125 521.54065Q432.51562 521.54065 431.70312 520.7125Q430.90625 519.8688 430.90625 518.29065ZM431.98438 518.29065Q431.98438 519.47815 432.5 520.0719Q433.03125 520.66565 433.8125 520.66565Q434.60938 520.66565 435.125 520.0719Q435.64062 519.47815 435.64062 518.2594Q435.64062 517.10315 435.10938 516.5094Q434.59375 515.91565 433.8125 515.91565Q433.03125 515.91565 432.5 516.5094Q431.98438 517.0875 431.98438 518.29065ZM440.01562 521.4L437.65625 515.1813L438.76562 515.1813L440.10938 518.9Q440.3125 519.5094 440.5 520.15Q440.64062 519.66565 440.89062 518.97815L442.28125 515.1813L443.35938 515.1813L441.0 521.4L440.01562 521.4ZM448.54688 519.4L449.64062 519.525Q449.39062 520.47815 448.6875 521.0094Q447.98438 521.54065 446.90625 521.54065Q445.54688 521.54065 444.73438 520.6969Q443.9375 519.85315 443.9375 518.3375Q443.9375 516.775 444.75 515.91565Q445.5625 515.04065 446.84375 515.04065Q448.09375 515.04065 448.875 515.8844Q449.67188 516.72815 449.67188 518.275Q449.67188 518.3688 449.67188 518.5563L445.03125 518.5563Q445.09375 519.5875 445.60938 520.1344Q446.125 520.66565 446.90625 520.66565Q447.48438 520.66565 447.89062 520.3688Q448.3125 520.0563 448.54688 519.4ZM445.09375 517.6969L448.5625 517.6969Q448.5 516.9 448.17188 516.5094Q447.65625 515.9 446.85938 515.9Q446.125 515.9 445.625 516.3844Q445.14062 516.8688 445.09375 517.6969ZM451.28125 521.4L451.28125 515.1813L452.23438 515.1813L452.23438 516.1188Q452.59375 515.4625 452.89062 515.2594Q453.20312 515.04065 453.57812 515.04065Q454.10938 515.04065 454.65625 515.3688L454.29688 516.35315Q453.90625 516.1188 453.53125 516.1188Q453.17188 516.1188 452.89062 516.3375Q452.625 516.54065 452.51562 516.91565Q452.32812 517.47815 452.32812 518.1344L452.32812 521.4L451.28125 521.4Z" fill-rule="nonzero"/><path fill="#757575" d="M214.96875 46.6L214.96875 32.2875L216.85938 32.2875L216.85938 44.9125L223.90625 44.9125L223.90625 46.6L214.96875 46.6ZM224.46875 46.6L229.96875 32.2875L232.01562 32.2875L237.875 46.6L235.71875 46.6L234.04688 42.25625L228.0625 42.25625L226.48438 46.6L224.46875 46.6ZM228.60938 40.725L233.45312 40.725L231.96875 36.75625Q231.28125 34.94375 230.95312 33.7875Q230.67188 35.1625 230.17188 36.521873L228.60938 40.725ZM239.03125 46.6L239.03125 32.2875L240.96875 32.2875L248.48438 43.521873L248.48438 32.2875L250.29688 32.2875L250.29688 46.6L248.35938 46.6L240.84375 35.35L240.84375 46.6L239.03125 46.6ZM258.14062 42.303123L258.14062 40.5375L263.53125 40.5375L263.53125 42.303123L258.14062 42.303123ZM270.46875 46.6L275.96875 32.2875L278.01562 32.2875L283.875 46.6L281.71875 46.6L280.04688 42.25625L274.0625 42.25625L272.48438 46.6L270.46875 46.6ZM274.60938 40.725L279.45312 40.725L277.96875 36.75625Q277.28125 34.94375 276.95312 33.7875Q276.67188 35.1625 276.17188 36.521873L274.60938 40.725ZM287.70312 46.6L283.75 36.225L285.60938 36.225L287.84375 42.44375Q288.20312 43.44375 288.5 44.521873Q288.73438 43.709373 289.15625 42.553123L291.45312 36.225L293.26562 36.225L289.34375 46.6L287.70312 46.6ZM301.92188 43.25625L303.73438 43.490623Q303.3125 45.06875 302.14062 45.959373Q300.98438 46.834373 299.17188 46.834373Q296.90625 46.834373 295.5625 45.44375Q294.23438 44.0375 294.23438 41.50625Q294.23438 38.88125 295.57812 37.44375Q296.92188 35.990623 299.07812 35.990623Q301.15625 35.990623 302.46875 37.4125Q303.79688 38.81875 303.79688 41.396873Q303.79688 41.553123 303.78125 41.865623L296.04688 41.865623Q296.14062 43.56875 297.01562 44.475Q297.89062 45.38125 299.1875 45.38125Q300.15625 45.38125 300.82812 44.88125Q301.51562 44.365623 301.92188 43.25625ZM296.14062 40.4125L301.9375 40.4125Q301.82812 39.115623 301.28125 38.459373Q300.4375 37.44375 299.09375 37.44375Q297.89062 37.44375 297.0625 38.25625Q296.23438 39.053123 296.14062 40.4125ZM305.79688 46.6L305.79688 36.225L307.375 36.225L307.375 37.803123Q307.98438 36.69375 308.5 36.35Q309.01562 35.990623 309.625 35.990623Q310.51562 35.990623 311.4375 36.553123L310.82812 38.19375Q310.1875 37.803123 309.54688 37.803123Q308.96875 37.803123 308.5 38.1625Q308.04688 38.50625 307.84375 39.115623Q307.5625 40.053123 307.5625 41.1625L307.5625 46.6L305.79688 46.6ZM319.59375 45.31875Q318.60938 46.146873 317.70312 46.490623Q316.79688 46.834373 315.76562 46.834373Q314.0625 46.834373 313.14062 46.00625Q312.21875 45.1625 312.21875 43.865623Q312.21875 43.1 312.5625 42.475Q312.92188 41.85 313.48438 41.475Q314.04688 41.084373 314.75 40.88125Q315.26562 40.75625 316.3125 40.615623Q318.4375 40.365623 319.4375 40.021873Q319.45312 39.6625 319.45312 39.553123Q319.45312 38.490623 318.95312 38.0375Q318.28125 37.44375 316.95312 37.44375Q315.70312 37.44375 315.10938 37.88125Q314.53125 38.31875 314.25 39.428123L312.53125 39.19375Q312.76562 38.084373 313.29688 37.4125Q313.82812 36.725 314.84375 36.365623Q315.85938 35.990623 317.20312 35.990623Q318.53125 35.990623 319.35938 36.303123Q320.1875 36.615623 320.57812 37.1Q320.96875 37.56875 321.125 38.2875Q321.21875 38.740623 321.21875 39.9125L321.21875 42.25625Q321.21875 44.709373 321.32812 45.365623Q321.4375 46.00625 321.78125 46.6L319.9375 46.6Q319.67188 46.053123 319.59375 45.31875ZM319.4375 41.396873Q318.48438 41.7875 316.5625 42.053123Q315.48438 42.209373 315.03125 42.4125Q314.59375 42.6 314.34375 42.975Q314.09375 43.35 314.09375 43.81875Q314.09375 44.521873 314.625 44.990623Q315.15625 45.459373 316.1875 45.459373Q317.20312 45.459373 317.98438 45.021873Q318.78125 44.56875 319.15625 43.803123Q319.4375 43.19375 319.4375 42.0375L319.4375 41.396873ZM323.5 47.459373L325.20312 47.709373Q325.3125 48.50625 325.79688 48.865623Q326.45312 49.35 327.59375 49.35Q328.8125 49.35 329.46875 48.865623Q330.14062 48.38125 330.375 47.50625Q330.51562 46.959373 330.5 45.240623Q329.34375 46.6 327.625 46.6Q325.48438 46.6 324.3125 45.053123Q323.14062 43.50625 323.14062 41.35Q323.14062 39.865623 323.67188 38.615623Q324.21875 37.365623 325.23438 36.678123Q326.26562 35.990623 327.64062 35.990623Q329.46875 35.990623 330.67188 37.475L330.67188 36.225L332.28125 36.225L332.28125 45.19375Q332.28125 47.615623 331.78125 48.615623Q331.29688 49.63125 330.21875 50.209373Q329.15625 50.803123 327.59375 50.803123Q325.75 50.803123 324.59375 49.975Q323.45312 49.146873 323.5 47.459373ZM324.95312 41.225Q324.95312 43.271873 325.76562 44.209373Q326.57812 45.146873 327.79688 45.146873Q329.0 45.146873 329.8125 44.209373Q330.64062 43.271873 330.64062 41.2875Q330.64062 39.38125 329.79688 38.4125Q328.95312 37.44375 327.76562 37.44375Q326.59375 37.44375 325.76562 38.396873Q324.95312 39.35 324.95312 41.225ZM341.92188 43.25625L343.73438 43.490623Q343.3125 45.06875 342.14062 45.959373Q340.98438 46.834373 339.17188 46.834373Q336.90625 46.834373 335.5625 45.44375Q334.23438 44.0375 334.23438 41.50625Q334.23438 38.88125 335.57812 37.44375Q336.92188 35.990623 339.07812 35.990623Q341.15625 35.990623 342.46875 37.4125Q343.79688 38.81875 343.79688 41.396873Q343.79688 41.553123 343.78125 41.865623L336.04688 41.865623Q336.14062 43.56875 337.01562 44.475Q337.89062 45.38125 339.1875 45.38125Q340.15625 45.38125 340.82812 44.88125Q341.51562 44.365623 341.92188 43.25625ZM336.14062 40.4125L341.9375 40.4125Q341.82812 39.115623 341.28125 38.459373Q340.4375 37.44375 339.09375 37.44375Q337.89062 37.44375 337.0625 38.25625Q336.23438 39.053123 336.14062 40.4125ZM361.4375 32.2875L363.32812 32.2875L363.32812 40.553123Q363.32812 42.709373 362.84375 43.990623Q362.35938 45.25625 361.07812 46.053123Q359.8125 46.85 357.73438 46.85Q355.71875 46.85 354.4375 46.1625Q353.17188 45.459373 352.625 44.146873Q352.07812 42.834373 352.07812 40.553123L352.07812 32.2875L353.96875 32.2875L353.96875 40.5375Q353.96875 42.4125 354.3125 43.303123Q354.65625 44.178123 355.5 44.6625Q356.34375 45.13125 357.57812 45.13125Q359.65625 45.13125 360.54688 44.19375Q361.4375 43.240623 361.4375 40.5375L361.4375 32.2875ZM366.04688 46.6L366.04688 32.2875L370.96875 32.2875Q372.64062 32.2875 373.53125 32.490623Q374.75 32.771873 375.625 33.50625Q376.75 34.475 377.3125 35.959373Q377.875 37.44375 377.875 39.365623Q377.875 40.990623 377.5 42.25625Q377.125 43.50625 376.51562 44.334373Q375.92188 45.1625 375.21875 45.646873Q374.51562 46.115623 373.51562 46.365623Q372.51562 46.6 371.20312 46.6L366.04688 46.6ZM367.9375 44.9125L371.0 44.9125Q372.40625 44.9125 373.20312 44.646873Q374.01562 44.38125 374.5 43.896873Q375.17188 43.225 375.54688 42.1Q375.92188 40.959373 375.92188 39.334373Q375.92188 37.084373 375.1875 35.88125Q374.45312 34.678123 373.39062 34.271873Q372.64062 33.975 370.95312 33.975L367.9375 33.975L367.9375 44.9125ZM380.04688 46.6L380.04688 32.2875L385.4375 32.2875Q386.875 32.2875 387.625 32.4125Q388.67188 32.6 389.39062 33.1Q390.10938 33.584373 390.53125 34.475Q390.96875 35.365623 390.96875 36.428123Q390.96875 38.25625 389.79688 39.521873Q388.64062 40.771873 385.60938 40.771873L381.9375 40.771873L381.9375 46.6L380.04688 46.6ZM381.9375 39.084373L385.64062 39.084373Q387.46875 39.084373 388.23438 38.4125Q389.01562 37.725 389.01562 36.475Q389.01562 35.584373 388.5625 34.94375Q388.10938 34.303123 387.375 34.1Q386.89062 33.975 385.59375 33.975L381.9375 33.975L381.9375 39.084373ZM399.04688 46.6L399.04688 32.2875L404.4375 32.2875Q405.875 32.2875 406.625 32.4125Q407.67188 32.6 408.39062 33.1Q409.10938 33.584373 409.53125 34.475Q409.96875 35.365623 409.96875 36.428123Q409.96875 38.25625 408.79688 39.521873Q407.64062 40.771873 404.60938 40.771873L400.9375 40.771873L400.9375 46.6L399.04688 46.6ZM400.9375 39.084373L404.64062 39.084373Q406.46875 39.084373 407.23438 38.4125Q408.01562 37.725 408.01562 36.475Q408.01562 35.584373 407.5625 34.94375Q407.10938 34.303123 406.375 34.1Q405.89062 33.975 404.59375 33.975L400.9375 33.975L400.9375 39.084373ZM418.59375 45.31875Q417.60938 46.146873 416.70312 46.490623Q415.79688 46.834373 414.76562 46.834373Q413.0625 46.834373 412.14062 46.00625Q411.21875 45.1625 411.21875 43.865623Q411.21875 43.1 411.5625 42.475Q411.92188 41.85 412.48438 41.475Q413.04688 41.084373 413.75 40.88125Q414.26562 40.75625 415.3125 40.615623Q417.4375 40.365623 418.4375 40.021873Q418.45312 39.6625 418.45312 39.553123Q418.45312 38.490623 417.95312 38.0375Q417.28125 37.44375 415.95312 37.44375Q414.70312 37.44375 414.10938 37.88125Q413.53125 38.31875 413.25 39.428123L411.53125 39.19375Q411.76562 38.084373 412.29688 37.4125Q412.82812 36.725 413.84375 36.365623Q414.85938 35.990623 416.20312 35.990623Q417.53125 35.990623 418.35938 36.303123Q419.1875 36.615623 419.57812 37.1Q419.96875 37.56875 420.125 38.2875Q420.21875 38.740623 420.21875 39.9125L420.21875 42.25625Q420.21875 44.709373 420.32812 45.365623Q420.4375 46.00625 420.78125 46.6L418.9375 46.6Q418.67188 46.053123 418.59375 45.31875ZM418.4375 41.396873Q417.48438 41.7875 415.5625 42.053123Q414.48438 42.209373 414.03125 42.4125Q413.59375 42.6 413.34375 42.975Q413.09375 43.35 413.09375 43.81875Q413.09375 44.521873 413.625 44.990623Q414.15625 45.459373 415.1875 45.459373Q416.20312 45.459373 416.98438 45.021873Q417.78125 44.56875 418.15625 43.803123Q418.4375 43.19375 418.4375 42.0375L418.4375 41.396873ZM429.59375 42.803123L431.3125 43.021873Q431.03125 44.81875 429.85938 45.834373Q428.70312 46.834373 427.0 46.834373Q424.875 46.834373 423.57812 45.44375Q422.28125 44.053123 422.28125 41.459373Q422.28125 39.771873 422.82812 38.521873Q423.39062 37.25625 424.53125 36.63125Q425.67188 35.990623 427.01562 35.990623Q428.70312 35.990623 429.76562 36.85Q430.84375 37.709373 431.15625 39.271873L429.4375 39.5375Q429.20312 38.490623 428.57812 37.975Q427.95312 37.44375 427.07812 37.44375Q425.75 37.44375 424.92188 38.396873Q424.09375 39.35 424.09375 41.396873Q424.09375 43.490623 424.89062 44.44375Q425.6875 45.38125 426.98438 45.38125Q428.01562 45.38125 428.70312 44.75625Q429.40625 44.115623 429.59375 42.803123ZM432.82812 46.6L432.82812 32.2875L434.59375 32.2875L434.59375 40.44375L438.75 36.225L441.01562 36.225L437.0625 40.06875L441.42188 46.6L439.25 46.6L435.82812 41.303123L434.59375 42.490623L434.59375 46.6L432.82812 46.6ZM449.92188 43.25625L451.73438 43.490623Q451.3125 45.06875 450.14062 45.959373Q448.98438 46.834373 447.17188 46.834373Q444.90625 46.834373 443.5625 45.44375Q442.23438 44.0375 442.23438 41.50625Q442.23438 38.88125 443.57812 37.44375Q444.92188 35.990623 447.07812 35.990623Q449.15625 35.990623 450.46875 37.4125Q451.79688 38.81875 451.79688 41.396873Q451.79688 41.553123 451.78125 41.865623L444.04688 41.865623Q444.14062 43.56875 445.01562 44.475Q445.89062 45.38125 447.1875 45.38125Q448.15625 45.38125 448.82812 44.88125Q449.51562 44.365623 449.92188 43.25625ZM444.14062 40.4125L449.9375 40.4125Q449.82812 39.115623 449.28125 38.459373Q448.4375 37.44375 447.09375 37.44375Q445.89062 37.44375 445.0625 38.25625Q444.23438 39.053123 444.14062 40.4125ZM457.65625 45.021873L457.90625 46.584373Q457.17188 46.740623 456.57812 46.740623Q455.625 46.740623 455.09375 46.44375Q454.57812 46.13125 454.35938 45.646873Q454.14062 45.146873 454.14062 43.56875L454.14062 37.6L452.85938 37.6L452.85938 36.225L454.14062 36.225L454.14062 33.6625L455.89062 32.6L455.89062 36.225L457.65625 36.225L457.65625 37.6L455.89062 37.6L455.89062 43.6625Q455.89062 44.4125 455.98438 44.63125Q456.07812 44.834373 456.28125 44.975Q456.5 45.1 456.89062 45.1Q457.17188 45.1 457.65625 45.021873ZM465.96875 46.6L465.96875 32.2875L467.85938 32.2875L467.85938 44.9125L474.90625 44.9125L474.90625 46.6L465.96875 46.6ZM476.17188 41.4125Q476.17188 38.5375 477.76562 37.146873Q479.10938 35.990623 481.03125 35.990623Q483.17188 35.990623 484.51562 37.396873Q485.875 38.803123 485.875 41.271873Q485.875 43.271873 485.28125 44.428123Q484.6875 45.56875 483.53125 46.209373Q482.39062 46.834373 481.03125 46.834373Q478.84375 46.834373 477.5 45.44375Q476.17188 44.0375 476.17188 41.4125ZM477.96875 41.4125Q477.96875 43.4125 478.82812 44.396873Q479.70312 45.38125 481.03125 45.38125Q482.34375 45.38125 483.20312 44.396873Q484.07812 43.396873 484.07812 41.35Q484.07812 39.428123 483.20312 38.44375Q482.32812 37.44375 481.03125 37.44375Q479.70312 37.44375 478.82812 38.44375Q477.96875 39.428123 477.96875 41.4125ZM487.10938 43.50625L488.85938 43.225Q489.0 44.271873 489.67188 44.834373Q490.34375 45.38125 491.54688 45.38125Q492.75 45.38125 493.32812 44.896873Q493.92188 44.396873 493.92188 43.740623Q493.92188 43.146873 493.40625 42.803123Q493.04688 42.56875 491.60938 42.209373Q489.67188 41.709373 488.92188 41.365623Q488.1875 41.00625 487.79688 40.38125Q487.40625 39.740623 487.40625 38.975Q487.40625 38.2875 487.71875 37.69375Q488.04688 37.1 488.59375 36.709373Q489.0 36.4125 489.70312 36.209373Q490.42188 35.990623 491.23438 35.990623Q492.45312 35.990623 493.375 36.35Q494.29688 36.69375 494.73438 37.303123Q495.17188 37.896873 495.34375 38.896873L493.625 39.13125Q493.5 38.334373 492.9375 37.896873Q492.375 37.44375 491.35938 37.44375Q490.14062 37.44375 489.625 37.85Q489.10938 38.240623 489.10938 38.771873Q489.10938 39.115623 489.32812 39.396873Q489.53125 39.678123 490.0 39.865623Q490.26562 39.959373 491.54688 40.303123Q493.42188 40.803123 494.15625 41.13125Q494.89062 41.44375 495.3125 42.053123Q495.73438 42.646873 495.73438 43.553123Q495.73438 44.428123 495.21875 45.209373Q494.70312 45.990623 493.73438 46.4125Q492.76562 46.834373 491.54688 46.834373Q489.53125 46.834373 488.46875 45.990623Q487.40625 45.146873 487.10938 43.50625ZM497.10938 43.50625L498.85938 43.225Q499.0 44.271873 499.67188 44.834373Q500.34375 45.38125 501.54688 45.38125Q502.75 45.38125 503.32812 44.896873Q503.92188 44.396873 503.92188 43.740623Q503.92188 43.146873 503.40625 42.803123Q503.04688 42.56875 501.60938 42.209373Q499.67188 41.709373 498.92188 41.365623Q498.1875 41.00625 497.79688 40.38125Q497.40625 39.740623 497.40625 38.975Q497.40625 38.2875 497.71875 37.69375Q498.04688 37.1 498.59375 36.709373Q499.0 36.4125 499.70312 36.209373Q500.42188 35.990623 501.23438 35.990623Q502.45312 35.990623 503.375 36.35Q504.29688 36.69375 504.73438 37.303123Q505.17188 37.896873 505.34375 38.896873L503.625 39.13125Q503.5 38.334373 502.9375 37.896873Q502.375 37.44375 501.35938 37.44375Q500.14062 37.44375 499.625 37.85Q499.10938 38.240623 499.10938 38.771873Q499.10938 39.115623 499.32812 39.396873Q499.53125 39.678123 500.0 39.865623Q500.26562 39.959373 501.54688 40.303123Q503.42188 40.803123 504.15625 41.13125Q504.89062 41.44375 505.3125 42.053123Q505.73438 42.646873 505.73438 43.553123Q505.73438 44.428123 505.21875 45.209373Q504.70312 45.990623 503.73438 46.4125Q502.76562 46.834373 501.54688 46.834373Q499.53125 46.834373 498.46875 45.990623Q497.40625 45.146873 497.10938 43.50625Z" fill-rule="nonzero"/></svg>